<svg width="537" height="370" viewBox="0 0 537 370" fill="none" xmlns="http://www.w3.org/2000/svg">
<path fill-rule="evenodd" clip-rule="evenodd" d="M250.375 6.40463C250.28 6.49966 250.202 6.96703 250.202 7.44323V8.30864H241.767H233.331V9.34723V10.3858H228.919H224.507V11.4244V12.463L223.014 12.4648C222.194 12.4659 220.734 12.5412 219.77 12.6323L218.018 12.7977V13.7989V14.7999H214.904H211.789V15.8385V16.8771H209.583H207.377V17.9157V18.9543H205.3H203.224V19.9825V21.0104L201.083 21.086L198.942 21.1613L198.862 22.2648L198.782 23.3683H196.721H194.659V24.3965V25.4244L192.518 25.5L190.377 25.5753L190.296 26.549C190.218 27.4957 190.187 27.5227 189.193 27.5227C188.178 27.5227 188.17 27.5297 188.17 28.5343V29.5459L186.094 29.7297L184.018 29.9135V30.9251V31.9367H182.85H181.682V32.9753V34.0139H180.644H179.605V35.0525V36.0911H178.567C177.532 36.0911 177.529 36.0937 177.529 37.1149C177.529 38.1335 177.524 38.1387 176.426 38.2184C175.328 38.2979 175.323 38.3036 175.243 39.4016C175.164 40.4997 175.158 40.5051 174.14 40.5051C173.119 40.5051 173.117 40.5077 173.117 41.5437V42.5823H172.079H171.04V43.6209V44.6595H170.002H168.964V45.6981V46.7367H167.926H166.888V47.9051V49.0736H165.72H164.552V50.1121V51.1507H163.514H162.475V52.1893V53.2279H161.437H160.399V55.435V57.642H159.361H158.323V58.6806V59.7192H157.155H155.987V61.7964V63.8736H154.949H153.91V65.042V66.2104H152.872H151.834V68.2876V70.3648H150.796H149.758V72.5718V74.7788H148.59H147.422V76.856V78.9332H146.384H145.345V81.1402V83.3472H144.307H143.269V86.463V89.5788H142.231H141.193V93.863V98.1472H140.025H138.857V102.561V106.975H137.819H136.78V114.375V121.775H135.742H134.704V131.382V140.989H135.742H136.78V147.481V153.972H137.819H138.857V159.295V164.617H140.025H141.193V167.863V171.109H142.231H143.269V174.354V177.6H144.307H145.345V179.807V182.014H146.384H147.422V183.534C147.422 184.37 147.497 185.772 147.588 186.649L147.755 188.245H148.756H149.758V189.414V190.582H150.796H151.834V192.66V194.737H152.872H153.91V196.814V198.891H144.307H134.704V200.06V201.228H133.666C132.652 201.228 132.628 201.249 132.628 202.137C132.628 203.024 132.652 203.045 133.666 203.045H134.704V206.421V209.796H266.294H397.883L397.916 207.849C397.934 206.778 397.97 204.938 397.995 203.76C398.021 202.581 397.994 201.471 397.935 201.293C397.874 201.107 397.395 200.968 396.817 200.968C395.812 200.968 395.807 200.964 395.807 199.93V198.891H375.562H355.318V197.853V196.814H356.356H357.394V195.645C357.394 194.488 357.402 194.477 358.285 194.477H359.176L359.356 192.4L359.538 190.323H360.542H361.547V188.26V186.198L362.65 186.118L363.753 186.038L363.828 183.896L363.904 181.754H364.931H365.959V178.638V175.523H366.997H368.036V172.277V169.031H369.074H370.112V164.747V160.463H371.28H372.448V156.179V151.895H373.486H374.524V131.512V111.13H373.486H372.448V105.807V100.484H371.28H370.112V97.2385V93.9929H369.074H368.036V90.7472V87.5016H366.997H365.959V84.3858V81.27H364.921H363.883V79.063V76.856H362.715H361.547V74.649V72.442H360.509H359.471V70.3648V68.2876H358.443H357.415L357.34 66.1455L357.264 64.0034L356.291 63.9229C355.345 63.8445 355.318 63.8138 355.318 62.8194C355.318 61.8036 355.311 61.7964 354.307 61.7964H353.295L353.112 59.7192L352.928 57.642H351.917H350.906V56.4736V55.3051H349.867H348.829V54.2665V53.2279H347.791H346.753V51.1507V49.0736H345.585H344.417V47.9051V46.7367H343.379H342.341V45.6981V44.6595H341.302H340.264V43.6209V42.5823H339.226H338.188V41.5437V40.5051H337.02H335.852V39.4665V38.4279H334.814H333.776V37.2595V36.0911H332.737H331.699V35.0525V34.0139H329.623H327.546V32.9753V31.9367H326.379H325.211V30.8981V29.8595H324.172H323.134V28.6911V27.5227H321.058H318.981V26.4841V25.4455H317.814H316.646V24.4069V23.3683H314.569H312.493V22.3531V21.3378L310.287 21.1537L308.081 20.9699V19.9622V18.9543H306.004H303.928V17.9157V16.8771H301.722H299.516V15.8385V14.7999H296.271H293.027V13.7981V12.7967L291.431 12.6297C290.554 12.5381 289.16 12.463 288.333 12.463H286.829L286.749 11.4893L286.668 10.5157L281.412 10.4453L276.156 10.3752V9.34178V8.30864H267.591H259.026V7.27004V6.23145H254.787C252.456 6.23145 250.47 6.30934 250.375 6.40463ZM254.614 11.5166V12.388L252.862 12.5534C251.899 12.6445 247.11 12.7198 242.221 12.7209L233.331 12.7227V13.7613V14.7999L230.412 14.8022C228.806 14.8032 226.879 14.878 226.129 14.9681C224.802 15.1275 224.766 15.1535 224.766 15.967V16.802L223.014 16.9674C222.051 17.0586 220.591 17.1339 219.77 17.1349L218.278 17.1367V18.0086V18.8803L216.682 19.0472C215.805 19.1389 214.345 19.2139 213.438 19.2139H211.789V20.2525V21.2911H209.713H207.636V22.3193V23.3473L205.495 23.4228L203.354 23.4981L203.275 24.4461L203.196 25.3938L201.148 25.5753L199.1 25.7568L199.021 26.7045C198.944 27.6195 198.903 27.6554 197.839 27.7322C196.741 27.8119 196.735 27.8171 196.735 28.8357V29.8595H194.659H192.583V30.8981V31.9367H191.415H190.247V32.9483V33.9599L188.17 34.1437L186.094 34.3276V35.3392C186.094 36.3463 186.089 36.3507 185.056 36.3507H184.018V37.3893V38.4279H182.85H181.682V39.4665V40.5051H180.644H179.605V41.5437V42.5823H178.567H177.529V43.6209V44.6595H176.491C175.455 44.6595 175.453 44.6621 175.453 45.6833C175.453 46.7019 175.447 46.7071 174.35 46.7868C173.252 46.8663 173.246 46.872 173.167 47.97C173.087 49.0681 173.082 49.0736 172.064 49.0736C171.043 49.0736 171.04 49.0761 171.04 50.1121V51.1507H170.002H168.964V52.1893V53.2279H167.926H166.888V54.3964V55.5648H165.85H164.811V56.6034C164.811 57.6373 164.807 57.642 163.8 57.642H162.789L162.607 59.7051L162.424 61.7681L161.476 61.8472C160.562 61.9233 160.526 61.9644 160.449 63.0297C160.369 64.1277 160.364 64.1332 159.346 64.1332H158.323V66.2104V68.2876H157.318H156.313L156.132 70.3648L155.951 72.442H155.061C154.178 72.442 154.17 72.4526 154.17 73.6104V74.7788H153.162H152.155L151.971 76.9858L151.787 79.1929H150.773H149.758V82.3086V85.4244H148.72H147.681V87.074C147.681 87.9815 147.606 89.442 147.515 90.3196C147.348 91.9149 147.348 91.9157 146.5 91.9157H145.652L145.468 94.1227L145.284 96.3297H144.443C143.605 96.3297 143.602 96.3336 143.436 97.9258C143.344 98.8034 143.269 101.14 143.269 103.119V106.716H142.231H141.193V115.284V123.853H140.155H139.116V130.344V136.835H140.155H141.193V146.442V156.049H142.231H143.269V158.737C143.269 160.216 143.344 162.144 143.436 163.021C143.602 164.611 143.606 164.617 144.437 164.617H145.27L145.436 166.37C145.527 167.334 145.602 168.794 145.603 169.616L145.605 171.109H146.643H147.681V174.224V177.34H148.72H149.758V179.547V181.754H150.786H151.813L151.889 183.896L151.964 186.038L152.911 186.117L153.859 186.197L154.042 188.26L154.224 190.323H155.235H156.246V192.4V194.477H157.285H158.323V195.645V196.814H159.361H160.399V197.853V198.891H164.682H168.964V197.853V196.814H167.926H166.888V194.607V192.4H165.877H164.865L164.682 190.323L164.498 188.245H163.64H162.782L162.598 186.038L162.414 183.831H161.407H160.399V181.754V179.677H159.361H158.323V176.561V173.445H157.285H156.246V171.796C156.246 170.888 156.171 169.428 156.08 168.55C155.914 166.961 155.909 166.954 155.079 166.954H154.245L154.08 165.202C153.989 164.238 153.913 162.317 153.912 160.933L153.91 158.417L152.937 158.337L151.964 158.256L151.895 151.83L151.825 145.403H150.791H149.758V132.551V119.698H150.791H151.825L151.895 113.272L151.964 106.845L152.937 106.765L153.91 106.684L153.912 104.169C153.913 102.785 153.989 100.864 154.08 99.8999L154.245 98.1472H155.08C155.893 98.1472 155.919 98.1119 156.078 96.7841C156.168 96.0345 156.243 94.6321 156.244 93.6683L156.246 91.9157H157.285H158.323V88.67V85.4244H159.361H160.399V83.3472V81.27H161.407H162.414L162.598 79.063L162.782 76.856H163.64H164.498L164.682 74.7788L164.865 72.7016H165.877H166.888V70.6244V68.5472H167.926H168.964V67.3788V66.2104H169.975H170.986L171.169 64.1472L171.352 62.0843L172.299 62.0051C173.214 61.929 173.249 61.888 173.326 60.8227C173.406 59.7246 173.411 59.7192 174.429 59.7192C175.45 59.7192 175.453 59.7166 175.453 58.6806V57.642H176.491H177.529V56.4736V55.3051H178.537H179.544L179.726 53.3723L179.907 51.4392L180.859 51.36C181.78 51.2832 181.814 51.2434 181.891 50.1771C181.971 49.079 181.976 49.0736 182.994 49.0736C184.013 49.0736 184.018 49.0686 184.018 48.0498C184.018 47.0312 184.023 47.026 185.121 46.9462C186.188 46.8691 186.226 46.8356 186.304 45.9077C186.378 45.0067 186.441 44.9438 187.342 44.8691C188.242 44.7943 188.305 44.7312 188.38 43.8323L188.459 42.8752L190.521 42.6953L192.583 42.5153V41.5102C192.583 40.5108 192.588 40.5051 193.621 40.5051H194.659V39.4665V38.4279H195.827H196.995V37.4163V36.4047L199.071 36.2209L201.148 36.0371V35.0255C201.148 34.0183 201.152 34.0139 202.186 34.0139C203.194 34.0139 203.224 33.9885 203.224 33.1285V32.2431L205.43 32.059L207.636 31.8752V30.8675V29.8595H209.713H211.789V28.8443V27.8291L213.995 27.645L216.201 27.4611V26.6201C216.201 25.7812 216.205 25.7786 217.797 25.6122C218.674 25.5205 220.076 25.4455 220.911 25.4455H222.43V24.4069V23.3683H225.675H228.919V22.3297V21.2911H232.644C234.694 21.2911 237.088 21.2161 237.965 21.1244C239.555 20.958 239.561 20.9546 239.561 20.1203V19.2832L247.606 19.0924C252.032 18.9875 259.273 18.9875 263.698 19.0924L271.744 19.2832V20.1203C271.744 20.9546 271.75 20.958 273.34 21.1244C274.217 21.2161 276.611 21.2911 278.66 21.2911H282.386V22.3297V23.3683H285.63H288.874V24.4069V25.4455H290.393C291.229 25.4455 292.624 25.52 293.494 25.6109L295.076 25.7763L295.155 26.7144L295.233 27.6525L297.374 27.7278L299.516 27.8034V28.8313V29.8595H301.592H303.668V30.8675V31.8752L305.874 32.059L308.081 32.2431V33.1285C308.081 33.9885 308.11 34.0139 309.119 34.0139C310.152 34.0139 310.157 34.0183 310.157 35.0255V36.0371L312.219 36.2196L314.281 36.4024L314.361 37.3501C314.437 38.2651 314.478 38.301 315.543 38.3778C316.64 38.4575 316.646 38.4627 316.646 39.4813C316.646 40.5025 316.648 40.5051 317.684 40.5051H318.722V41.5437V42.5823H319.89H321.058V43.5905V44.5985L322.99 44.7797L324.922 44.9607L325.001 45.9136C325.078 46.8346 325.118 46.8691 326.184 46.9462C327.281 47.026 327.287 47.0312 327.287 48.0498C327.287 49.0686 327.292 49.0736 328.31 49.0736C329.329 49.0736 329.334 49.079 329.413 50.1771C329.49 51.2434 329.525 51.2832 330.446 51.36L331.398 51.4392L331.579 53.3723L331.76 55.3051H332.768H333.776V56.4736V57.642H334.814H335.852V58.6806C335.852 59.7166 335.855 59.7192 336.875 59.7192C337.894 59.7192 337.899 59.7246 337.978 60.8227C338.055 61.888 338.091 61.929 339.006 62.0051L339.953 62.0843L340.136 64.1472L340.318 66.2104H341.329H342.341V67.3788V68.5472H343.379H344.417V70.6244V72.7016H345.428H346.439L346.623 74.7788L346.807 76.856H347.665H348.523L348.707 79.063L348.891 81.27H349.898H350.906V83.3472V85.4244H351.944H352.982V88.67V91.9157H354.02H355.058L355.06 93.4086C355.061 94.2299 355.136 95.6904 355.228 96.6543L355.393 98.4069H356.227C357.057 98.4069 357.062 98.4136 357.228 100.003C357.319 100.881 357.394 102.808 357.394 104.287V106.975H358.266H359.137L359.304 108.571C359.396 109.449 359.471 112.779 359.471 115.971V121.775H360.509H361.547V132.551V143.326H360.509H359.471L359.468 149.363C359.467 152.683 359.392 156.013 359.302 156.763C359.141 158.105 359.125 158.126 358.267 158.126H357.394V160.814C357.394 162.293 357.319 164.221 357.228 165.099C357.062 166.688 357.057 166.695 356.227 166.695H355.393L355.228 168.447C355.136 169.411 355.061 170.872 355.06 171.693L355.058 173.186H354.02H352.982V176.431V179.677H351.944H350.906V181.754V183.831H349.898H348.891L348.707 186.038L348.523 188.245H347.665H346.807L346.623 190.323L346.439 192.4H345.428H344.417V194.477V196.554H343.379H342.341V197.723V198.891H346.623H350.906V197.853V196.814H351.944H352.982V194.607V192.4H353.993H355.004L355.188 190.323L355.372 188.245H356.226H357.081L357.263 186.182L357.446 184.119L358.393 184.04L359.341 183.961L359.416 181.819L359.492 179.677H360.519H361.547V177.47V175.263H362.585H363.623L363.626 173.51C363.627 172.547 363.701 171.144 363.792 170.395C363.951 169.064 363.976 169.031 364.796 169.031H365.637L365.826 164.747L366.015 160.463H366.858C367.701 160.463 367.702 160.46 367.869 158.867C367.961 157.989 368.036 156.003 368.036 154.453V151.635H369.074H370.112V131.382V111.13H369.074H368.036L368.034 107.56C368.033 105.596 367.957 103.201 367.866 102.237L367.701 100.484H366.868H366.034L365.869 98.7314C365.778 97.7676 365.703 96.3071 365.702 95.4858L365.7 93.9929H364.828H363.957L363.79 92.3968C363.698 91.5192 363.623 90.0586 363.623 89.1512V87.5016H362.585H361.547V85.4244V83.3472H360.509H359.471V81.1402V78.9332H358.432H357.394V77.4135C357.394 76.5774 357.319 75.1753 357.228 74.2977L357.061 72.7016H356.06H355.058V71.5332V70.3648H354.02H352.982V68.2876V66.2104H351.977H350.973L350.793 64.148L350.613 62.0853L349.656 62.0059C348.731 61.9288 348.697 61.8901 348.62 60.8227C348.54 59.7246 348.535 59.7192 347.517 59.7192C346.496 59.7192 346.493 59.7166 346.493 58.6806V57.642H345.455H344.417V55.5648V53.4876H343.394C342.375 53.4876 342.37 53.4821 342.291 52.3841C342.211 51.286 342.205 51.2803 341.108 51.2009C340.01 51.1211 340.005 51.1159 340.005 50.0973C340.005 49.0761 340.002 49.0736 338.966 49.0736H337.928V48.035V46.9964H336.89H335.852V45.9578C335.852 44.9218 335.849 44.9192 334.829 44.9192C333.81 44.9192 333.805 44.9137 333.725 43.8157C333.646 42.7176 333.64 42.7119 332.543 42.6324C331.445 42.5527 331.44 42.5475 331.44 41.5289C331.44 40.5077 331.437 40.5051 330.401 40.5051H329.363V39.4665V38.4279H328.325C327.292 38.4279 327.287 38.4235 327.287 37.4163V36.4047L325.225 36.2222L323.163 36.0394L323.083 35.0917C323.007 34.1767 322.966 34.1409 321.901 34.064C320.804 33.9843 320.798 33.9791 320.798 32.9605C320.798 31.9393 320.796 31.9367 319.76 31.9367H318.722V30.8981V29.8595H316.646H314.569V28.8516V27.8439L312.363 27.66L310.157 27.4759V26.6175V25.7591L308.081 25.5753L306.004 25.3915V24.3799V23.3683H303.928H301.851V22.3297V21.2911H299.645H297.439V20.2629V19.2349L295.298 19.1594L293.157 19.0841L293.078 18.1374L292.999 17.1907L288.73 17.0025L284.462 16.814V15.807V14.7999H280.309H276.156V13.7613V12.7227L268.175 12.7209C263.786 12.7198 259.406 12.6445 258.442 12.5534L256.691 12.388V11.5166C256.691 10.6733 256.657 10.6455 255.652 10.6455C254.647 10.6455 254.614 10.6733 254.614 11.5166ZM207.587 35.2472C207.509 36.1924 207.474 36.2233 206.404 36.3006C205.306 36.3803 205.3 36.3855 205.3 37.4041C205.3 38.4253 205.298 38.4279 204.262 38.4279H203.224V42.7121V46.9964H204.262H205.3V48.5161C205.3 49.3522 205.376 50.7543 205.467 51.6319C205.633 53.224 205.636 53.2279 206.475 53.2279H207.315L207.499 55.435L207.683 57.642H208.698C209.709 57.642 209.713 57.6459 209.713 58.6806V59.7192H210.751C211.787 59.7192 211.789 59.7212 211.789 60.7453V61.7714L230.801 61.8488C241.257 61.8914 251.36 61.8904 253.252 61.8467L256.691 61.7675V60.7432C256.691 59.7215 256.688 59.7192 255.652 59.7192H254.614V58.6806V57.642H253.576C252.54 57.642 252.538 57.6394 252.538 56.6182C252.538 55.5996 252.532 55.5944 251.435 55.5147C250.364 55.4373 250.329 55.4064 250.251 54.4613C250.173 53.5146 250.142 53.4876 249.148 53.4876C248.133 53.4876 248.126 53.4806 248.126 52.476V51.4644L246.049 51.2806L243.973 51.0967V50.0851V49.0736H242.805H241.637V48.035V46.9964H239.561H237.484V45.9726C237.484 44.954 237.479 44.9488 236.381 44.8691C235.318 44.7922 235.275 44.7548 235.2 43.8512L235.121 42.9131L233.539 42.7477C232.669 42.6568 231.274 42.5823 230.438 42.5823H228.919V41.5437V40.5051H226.843H224.766V39.4665V38.4279H222.56H220.354V37.3893V36.3507L218.862 36.3489C218.041 36.3479 216.581 36.2726 215.617 36.1815L213.865 36.0161V35.1447V34.2736H210.767H207.668L207.587 35.2472ZM196.905 52.9034C196.688 55.2 196.69 74.3288 196.907 80.556L197.077 85.4244H197.907H198.737L198.902 87.1771C198.993 88.1409 199.069 90.0688 199.07 91.4613L199.071 93.9929H200.11H201.148V97.2385V100.484H202.186H203.224V103.6V106.716H204.232H205.239L205.423 108.923L205.607 111.13H206.468H207.33L207.514 113.337L207.698 115.544H208.558H209.418L209.599 117.621L209.78 119.698H210.784H211.789V121.775V123.853H212.827H213.865V125.021V126.189H214.877H215.888L216.072 128.267L216.255 130.344H217.267H218.278V131.512V132.681H219.316H220.354V135.796V138.912H216.072H211.789V140.081V141.249H210.751H209.713V144.35V147.451L208.61 147.531C207.542 147.608 207.504 147.641 207.427 148.569C207.352 149.47 207.289 149.533 206.389 149.608L205.43 149.688L205.355 151.83L205.279 153.972H206.313C207.344 153.972 207.347 153.975 207.427 155.075C207.504 156.143 207.538 156.181 208.465 156.259C209.366 156.333 209.429 156.396 209.503 157.297C209.58 158.225 209.619 158.259 210.686 158.336C211.784 158.415 211.789 158.421 211.789 159.439C211.789 160.46 211.792 160.463 212.827 160.463H213.865V161.502V162.54H214.904H215.942V163.579C215.942 164.615 215.944 164.617 216.965 164.617C217.983 164.617 217.989 164.623 218.068 165.721C218.148 166.819 218.153 166.825 219.251 166.904C220.349 166.984 220.354 166.989 220.354 168.008C220.354 169.029 220.357 169.031 221.392 169.031H222.43V170.07V171.109H223.598H224.766V172.147V173.186H225.805H226.843V174.835C226.843 175.743 226.768 177.203 226.676 178.081C226.509 179.676 226.509 179.677 225.661 179.677H224.813L224.629 181.884L224.445 184.091H223.605C222.766 184.091 222.764 184.095 222.597 185.687C222.506 186.565 222.43 187.967 222.43 188.803V190.323H221.392H220.354V193.568V196.814H219.316H218.278V197.853V198.891H240.728H263.179V197.853C263.179 196.819 263.175 196.814 262.168 196.814H261.157L260.974 194.751L260.792 192.688L259.844 192.609L258.897 192.53L258.821 190.388L258.746 188.245H257.718H256.691V187.077V185.909H255.652H254.614V183.831V181.754H253.609H252.605L252.425 179.692L252.245 177.629L251.288 177.55L250.332 177.47L250.256 175.328L250.181 173.186H249.153C248.127 173.186 248.126 173.184 248.126 172.147V171.109H247.087H246.049V168.902V166.695H245.038H244.027L243.843 164.617L243.659 162.54H242.648C241.641 162.54 241.637 162.536 241.637 161.502V160.463H240.584H239.531L239.611 159.36C239.69 158.261 239.696 158.256 240.793 158.176L241.896 158.096V157.036V155.975L243.492 156.142C244.369 156.234 245.303 156.309 245.568 156.309C245.956 156.309 246.049 156.509 246.049 157.347V158.386H247.087H248.126V159.424V160.463H249.293H250.461V161.502V162.54H252.538H254.614V163.579V164.617H255.652C256.685 164.617 256.691 164.623 256.691 165.625V166.633L258.897 166.817L261.103 167.001V167.868V168.736L263.179 168.917L265.256 169.098V170.104V171.109H267.332H269.408V172.147V173.186H271.614H273.821V174.214V175.242L275.962 175.318L278.103 175.393L278.182 176.338L278.261 177.282L282.4 177.471L286.538 177.659V178.668V179.677H290.821H295.103V180.716V181.754L301.527 181.766C305.06 181.773 310.754 181.842 314.18 181.92C317.606 181.998 321.489 181.981 322.81 181.883L325.211 181.706V180.692V179.677H323.004H320.798V178.638V177.6H318.722H316.646V176.588V175.577L314.583 175.394L312.521 175.211L312.442 174.264L312.363 173.316L310.222 173.24L308.081 173.165V172.152C308.081 171.145 308.073 171.138 306.977 171.059C305.913 170.982 305.872 170.946 305.796 170.031L305.716 169.083L303.654 168.9L301.592 168.718V167.836C301.592 166.98 301.561 166.954 300.554 166.954H299.516V165.786V164.617H297.439H295.363V163.579V162.54H294.195H293.027V161.529V160.517L290.951 160.333L288.874 160.149V159.282C288.874 158.448 288.833 158.413 287.771 158.336C286.673 158.256 286.668 158.251 286.588 157.153C286.509 156.054 286.503 156.049 285.485 156.049C284.465 156.049 284.462 156.046 284.462 155.01V153.972H282.386H280.309V152.933V151.895H279.271C278.235 151.895 278.233 151.892 278.233 150.871C278.233 149.852 278.227 149.847 277.13 149.767C276.062 149.69 276.024 149.657 275.947 148.729C275.872 147.828 275.809 147.765 274.909 147.69C273.981 147.613 273.948 147.575 273.871 146.507L273.791 145.403H271.729H269.668V144.365V143.326H268.63C267.594 143.326 267.591 143.324 267.591 142.302C267.591 141.284 267.586 141.279 266.488 141.199C265.391 141.119 265.385 141.114 265.306 140.016C265.226 138.918 265.221 138.912 264.203 138.912C263.182 138.912 263.179 138.91 263.179 137.874V136.835H262.011H260.843V135.796V134.758H259.805H258.767V133.719V132.681H257.729H256.691V131.642V130.603H255.652H254.614V129.435V128.267H253.446H252.278V127.228V126.189H251.24H250.202V125.151V124.112H249.164H248.126V123.074V122.035H247.087H246.049V120.867V119.698H245.011H243.973V118.66V117.621H242.935C241.899 117.621 241.896 117.618 241.896 116.597C241.896 115.579 241.891 115.573 240.793 115.494C239.696 115.414 239.69 115.408 239.611 114.31C239.531 113.212 239.526 113.207 238.508 113.207C237.487 113.207 237.484 113.204 237.484 112.168C237.484 111.134 237.48 111.13 236.473 111.13H235.462L235.278 109.052L235.094 106.975H234.083H233.072V105.807V104.638H232.034H230.996V103.6V102.561H229.957H228.919V101.523C228.919 100.49 228.913 100.484 227.914 100.484H226.91L226.73 98.4217L226.55 96.359L225.593 96.2796C224.668 96.2025 224.634 96.1638 224.557 95.0964C224.477 93.9983 224.472 93.9929 223.454 93.9929H222.43V91.9157V89.8385H221.392H220.354V88.67V87.5016H219.343H218.332L218.148 85.4244L217.964 83.3472H216.953C215.949 83.3472 215.942 83.34 215.942 82.3242C215.942 81.3298 215.915 81.2991 214.969 81.2207L213.995 81.1402L213.919 79.1279L213.844 77.1157H212.816H211.789V75.9472V74.7788H210.761H209.734L209.658 72.6367L209.583 70.4946L208.635 70.4157L207.688 70.3365L207.505 68.2736L207.323 66.2104H206.468H205.614L205.432 64.1472L205.249 62.0843L204.301 62.0051L203.354 61.9262L203.279 59.7841L203.203 57.642H202.176H201.148V55.435V53.2279H200.11H199.071V52.1893C199.071 51.1572 199.065 51.1507 198.071 51.1507H197.07L196.905 52.9034ZM318.895 51.3239C318.8 51.419 318.722 51.9448 318.722 52.4924C318.722 53.4803 318.714 53.4876 317.684 53.4876H316.646V54.5262V55.5648H315.607H314.569V56.6034C314.569 57.6357 314.563 57.642 313.567 57.642H312.564L312.387 59.5956C312.29 60.6703 312.281 61.6634 312.367 61.8026C312.453 61.942 312.984 62.056 313.546 62.056C314.567 62.056 314.569 62.0586 314.569 63.0946V64.1332H315.607H316.646V65.1718V66.2104H318.722H320.798V65.1866C320.798 64.168 320.804 64.1628 321.901 64.0831C322.999 64.0036 323.005 63.9979 323.084 62.8999C323.164 61.8018 323.169 61.7964 324.187 61.7964C325.208 61.7964 325.211 61.7938 325.211 60.7578V59.7192H326.249H327.287V58.6806V57.642H326.249H325.211V56.6034C325.211 55.5674 325.208 55.5648 324.187 55.5648C323.169 55.5648 323.164 55.5593 323.084 54.4613C323.005 53.3632 322.999 53.3575 321.901 53.278C320.804 53.1983 320.798 53.1931 320.798 52.1745C320.798 51.1874 320.767 51.1507 319.933 51.1507C319.457 51.1507 318.99 51.2286 318.895 51.3239ZM261.103 65.1718V68.2876H237.614H214.125V69.3106C214.125 70.3051 214.152 70.3357 215.098 70.4141C216.043 70.4923 216.074 70.5271 216.151 71.5981C216.231 72.6962 216.236 72.7016 217.254 72.7016H218.278V74.7788V76.856H219.316H220.354V77.8946V78.9332H221.392H222.43V80.1016V81.27H223.442H224.453L224.637 83.3472L224.82 85.4244H225.832C226.838 85.4244 226.843 85.4291 226.843 86.463V87.5016H227.881H228.919V88.67V89.8385H229.93H230.942L231.125 91.9157L231.309 93.9929H232.32C233.324 93.9929 233.331 94.0001 233.331 95.0159C233.331 96.0103 233.358 96.041 234.305 96.1194C235.249 96.1975 235.28 96.2323 235.358 97.3034C235.437 98.4014 235.443 98.4069 236.461 98.4069C237.482 98.4069 237.484 98.4095 237.484 99.4455C237.484 100.479 237.489 100.484 238.495 100.484H239.507L239.69 102.561L239.874 104.638H240.885C241.889 104.638 241.896 104.646 241.896 105.661C241.896 106.656 241.923 106.687 242.87 106.765C243.814 106.843 243.845 106.878 243.923 107.949C244.002 109.047 244.008 109.052 245.026 109.052C246.047 109.052 246.049 109.055 246.049 110.091V111.13H247.087H248.126V112.168C248.126 113.204 248.128 113.207 249.149 113.207C250.167 113.207 250.172 113.212 250.252 114.31C250.331 115.408 250.337 115.414 251.435 115.494C252.532 115.573 252.538 115.579 252.538 116.597C252.538 117.618 252.54 117.621 253.576 117.621H254.614V118.66V119.698H256.676H258.737L258.817 118.595C258.894 117.527 258.928 117.488 259.855 117.411C260.756 117.337 260.819 117.274 260.893 116.373C260.97 115.445 261.009 115.411 262.076 115.334L263.179 115.254V113.322V111.389H264.217H265.256V110.221V109.052H266.423H267.591V108.014V106.975H268.63C269.665 106.975 269.668 106.973 269.668 105.952C269.668 104.958 269.695 104.927 270.641 104.849C271.586 104.771 271.617 104.736 271.694 103.665C271.774 102.567 271.779 102.561 272.797 102.561C273.818 102.561 273.821 102.559 273.821 101.523V100.484H274.859C275.894 100.484 275.897 100.481 275.897 99.4603C275.897 98.4417 275.902 98.4365 277 98.3568C278.098 98.2773 278.103 98.2716 278.183 97.1736C278.262 96.0755 278.268 96.07 279.286 96.07C280.307 96.07 280.309 96.0674 280.309 95.0314V93.9929H281.347H282.386V92.9543C282.386 91.9183 282.388 91.9157 283.409 91.9157C284.427 91.9157 284.432 91.9102 284.512 90.8121L284.592 89.7086H286.668H288.744L288.824 90.8121L288.904 91.9157H290.965H293.027V90.8771C293.027 89.8411 293.03 89.8385 294.05 89.8385C295.069 89.8385 295.074 89.833 295.153 88.735C295.233 87.6369 295.239 87.6312 296.336 87.5517C297.434 87.472 297.439 87.4668 297.439 86.4482C297.439 85.427 297.442 85.4244 298.477 85.4244H299.516V84.3858V83.3472H300.554H301.592V82.1788V81.0104H302.63H303.668V79.9718C303.668 78.9379 303.673 78.9332 304.679 78.9332H305.691L305.874 76.856L306.058 74.7788H308.071H310.083L310.25 76.3749C310.465 78.436 310.462 91.5225 310.244 103.665L310.073 113.207H309.077H308.081V111.144V109.082L306.977 109.002C305.91 108.925 305.872 108.892 305.795 107.964C305.72 107.063 305.657 107 304.757 106.925C303.856 106.85 303.793 106.788 303.718 105.887C303.644 104.986 303.581 104.923 302.68 104.848C301.753 104.771 301.719 104.733 301.642 103.665C301.562 102.567 301.557 102.561 300.539 102.561C299.518 102.561 299.516 102.559 299.516 101.523V100.484H298.477H297.439V99.4455C297.439 98.4095 297.437 98.4069 296.416 98.4069C295.398 98.4069 295.392 98.4014 295.313 97.3034C295.233 96.2053 295.228 96.1996 294.13 96.1202C293.032 96.0404 293.027 96.0352 293.027 95.0166V93.9929H290.965H288.904L288.824 95.0964C288.747 96.1643 288.714 96.2025 287.786 96.2796C286.885 96.3544 286.822 96.4172 286.748 97.3182C286.671 98.2462 286.632 98.2797 285.565 98.3568C284.467 98.4365 284.462 98.4417 284.462 99.4603C284.462 100.481 284.459 100.484 283.424 100.484H282.386V101.523V102.561H281.347H280.309V103.73V104.898H279.271H278.233V105.937V106.975H277.195H276.156V108.014V109.052H274.988H273.821V110.091V111.13H272.782H271.744V112.298V113.467H270.706H269.668V114.505V115.544H268.63H267.591V116.582V117.621H266.553H265.515V118.66V119.698H264.347H263.179V120.867V122.035H262.141H261.103V124.112V126.189H262.141H263.179V127.228C263.179 128.264 263.182 128.267 264.203 128.267C265.221 128.267 265.226 128.272 265.306 129.37C265.383 130.438 265.416 130.476 266.344 130.553C267.244 130.628 267.307 130.691 267.382 131.592C267.457 132.493 267.52 132.556 268.42 132.63C269.321 132.705 269.384 132.768 269.458 133.669C269.535 134.597 269.574 134.631 270.641 134.708C271.739 134.787 271.744 134.793 271.744 135.811C271.744 136.832 271.747 136.835 272.782 136.835H273.821V137.874V138.912H274.859C275.894 138.912 275.897 138.915 275.897 139.936C275.897 140.955 275.902 140.96 277 141.039C278.067 141.117 278.106 141.15 278.183 142.078C278.257 142.979 278.32 143.042 279.221 143.117C280.149 143.194 280.182 143.232 280.259 144.3L280.339 145.403H282.4H284.462V146.442V147.481H285.5C286.536 147.481 286.538 147.483 286.538 148.504C286.538 149.523 286.544 149.528 287.641 149.608C288.712 149.685 288.747 149.716 288.825 150.661C288.903 151.608 288.934 151.635 289.928 151.635H290.951V152.803V153.972H293.027H295.103V155.01V156.049H296.271H297.439V157.088V158.126H298.477C299.511 158.126 299.516 158.131 299.516 159.138V160.149L301.592 160.333L303.668 160.517V161.529V162.54H304.836H306.004V163.579V164.617H307.042H308.081V165.656V166.695H310.157H312.233V142.158V117.621H314.439H316.646V95.1613V72.7016H315.478H314.31V71.663V70.6244H313.271C312.236 70.6244 312.233 70.6218 312.233 69.6014C312.233 68.607 312.206 68.5763 311.26 68.4979C310.315 68.4197 310.284 68.385 310.207 67.3139C310.127 66.2158 310.122 66.2104 309.104 66.2104C308.085 66.2104 308.081 66.2055 308.081 65.1866C308.081 64.168 308.075 64.1628 306.977 64.0831C305.907 64.0057 305.872 63.9748 305.794 63.0297L305.713 62.056H283.408H261.103V65.1718ZM267.332 69.4542V70.6244H268.37H269.408V71.663V72.7016H270.446H271.485V73.7402V74.7788H272.653H273.821V75.8174C273.821 76.8534 273.823 76.856 274.844 76.856C275.862 76.856 275.867 76.8615 275.947 77.9595C276.026 79.0576 276.032 79.0633 277.13 79.1427C278.227 79.2225 278.233 79.2276 278.233 80.2462C278.233 81.2674 278.235 81.27 279.271 81.27H280.309V82.3086V83.3472H281.347H282.386V84.3858V85.4244H283.424H284.462V86.463V87.5016H286.538H288.615V86.463V85.4244H289.783H290.951V84.3858V83.3472H291.989H293.027V82.3086C293.027 81.2726 293.03 81.27 294.05 81.27C295.069 81.27 295.074 81.2646 295.153 80.1665C295.233 79.0685 295.239 79.0628 296.336 78.9833C297.434 78.9036 297.439 78.8984 297.439 77.8798C297.439 76.8586 297.442 76.856 298.477 76.856H299.516V75.8174V74.7788H300.554C301.589 74.7788 301.592 74.7762 301.592 73.755C301.592 72.7364 301.597 72.7312 302.695 72.6515L303.798 72.5718V70.4946V68.4174L285.565 68.3507L267.332 68.2839V69.4542ZM316.646 147.481V171.109H318.722H320.798V172.147V173.186H321.966H323.134V174.197V175.209L325.211 175.393L327.287 175.577V176.421V177.265L329.039 177.431C330.003 177.522 332.922 177.597 335.528 177.598L340.264 177.6V176.577C340.264 175.582 340.291 175.552 341.238 175.473L342.211 175.393L342.292 171.109C342.336 168.752 342.296 165.861 342.204 164.682L342.034 162.54H341.18H340.326L340.142 160.333L339.958 158.126H339.11C338.262 158.126 338.262 158.125 338.095 156.53C338.003 155.653 337.928 154.25 337.928 153.414V151.895H336.89H335.852V149.817V147.74H334.814H333.776V146.572V145.403H332.748H331.72L331.645 143.261L331.569 141.119L330.613 141.039L329.656 140.96L329.476 138.897L329.296 136.835H328.292C327.293 136.835 327.287 136.829 327.287 135.796V134.758H326.249H325.211V132.695V130.633L324.108 130.553C323.01 130.474 323.004 130.468 322.925 129.37C322.845 128.272 322.84 128.267 321.822 128.267C320.803 128.267 320.798 128.261 320.798 127.244C320.798 126.249 320.771 126.218 319.825 126.14C318.88 126.062 318.849 126.027 318.772 124.956C318.692 123.858 318.687 123.853 317.669 123.853H316.646V147.481ZM200.174 156.224C199.112 156.334 199.071 156.372 199.071 157.232C199.071 158.102 199.099 158.126 200.11 158.126H201.148V159.295V160.463H202.186H203.224V161.502V162.54H204.392H205.56V163.579V164.617H206.598H207.636V165.656V166.695H208.675H209.713V167.733V168.772H210.751H211.789V169.94V171.109H212.827H213.865V172.147V173.186H216.072H218.278V172.147C218.278 171.111 218.275 171.109 217.254 171.109C216.236 171.109 216.231 171.103 216.151 170.005C216.072 168.907 216.066 168.901 214.969 168.822C213.871 168.742 213.865 168.737 213.865 167.718C213.865 166.697 213.863 166.695 212.827 166.695H211.789V165.656C211.789 164.62 211.787 164.617 210.766 164.617C209.748 164.617 209.742 164.612 209.663 163.514C209.586 162.448 209.551 162.408 208.63 162.331L207.678 162.252L207.497 160.319L207.316 158.386H206.308C205.306 158.386 205.3 158.381 205.3 157.347C205.3 156.509 205.208 156.309 204.82 156.309C204.555 156.309 203.65 156.264 202.808 156.209C201.966 156.155 200.781 156.161 200.174 156.224ZM124.063 229.789C124.063 230.821 124.056 230.828 123.062 230.828H122.061L121.896 232.581C121.805 233.544 121.73 235.005 121.729 235.826L121.727 237.319H120.689H119.65V240.565V243.81H118.612H117.574V246.017V248.224H116.536H115.498V251.34V254.456H114.497H113.496L113.331 256.209C113.24 257.172 113.165 258.633 113.164 259.454L113.162 260.947H112.124H111.085V264.193V267.438H110.047H109.009V270.554V273.67H107.971H106.933V276.916V280.161H105.931H104.93L104.763 281.757C104.672 282.635 104.597 284.095 104.597 285.003V286.653H103.559H102.52V288.86V291.067H101.482H100.444V294.182V297.298H99.4059H98.3677V300.544V303.789H108.101H117.834V302.751V301.712H118.872H119.91V298.467V295.221H120.948H121.986V293.144V291.067H134.704H147.422V292.586C147.422 293.422 147.497 294.824 147.588 295.702L147.755 297.298H148.756H149.758V300.544V303.789H160.529H171.3V300.544V297.298H170.262H169.224L169.222 295.805C169.221 294.984 169.146 293.524 169.054 292.56L168.889 290.807H167.888H166.888V287.691V284.575H165.85H164.811V281.33V278.084H163.773H162.735V274.968V271.853H161.707H160.679L160.604 269.581L160.529 267.309L159.426 267.229L158.323 267.149V264.048V260.947H157.285H156.246V257.702V254.456H155.208H154.17V251.21V247.965H153.132H152.094V244.849V241.733H150.926H149.758V238.488V235.242H148.72H147.681V233.035V230.828H146.643H145.605V229.789V228.751H134.834H124.063V229.789ZM181.682 229.919V231.088H180.644H179.605V267.438V303.789H190.377H201.148V288.86V273.93H215.033H228.919V266.427V258.924L226.908 258.775C225.801 258.692 221.042 258.663 216.331 258.709C211.62 258.756 206.277 258.735 204.457 258.662L201.148 258.53V252.209V245.888H202.186C203.199 245.888 203.224 245.866 203.224 244.979V244.07H218.278H233.331V236.41V228.751H207.507H181.682V229.919ZM260.843 229.789V230.828H257.729H254.614V231.996V233.165H253.446H252.278V234.203V235.242H251.24H250.202V236.281V237.319H249.164H248.126V238.358C248.126 239.389 248.119 239.396 247.127 239.396H246.129L245.96 242.707C245.744 246.961 245.741 255.215 245.956 257.274L246.123 258.87H247.124H248.126V261.077V263.284H249.164H250.202V264.323V265.361H252.278H254.355V266.4V267.438H256.546H258.737L258.817 268.542L258.897 269.645L261.038 269.721L263.179 269.796V270.824V271.853H266.423H269.668V272.891V273.93H273.821H277.973V274.968V276.007H280.179H282.386V277.045V278.084H283.424H284.462V282.368V286.653H283.424H282.386V287.691V288.73H281.347H280.309V289.768V290.807H274.988H269.668V289.768V288.73H267.591H265.515V287.691V286.653H264.347H263.179V283.407V280.161H262.141H261.103V279.123V278.084H257.858H254.614V279.123V280.161H248.126H241.637V281.33V282.498H242.675H243.713V285.186C243.713 286.665 243.788 288.593 243.88 289.47C244.047 291.064 244.048 291.067 244.891 291.067H245.736L245.919 293.144L246.103 295.221H247.114H248.126V296.389V297.558H249.164H250.202V298.596V299.635H251.24H252.278V300.674V301.712H254.484H256.691V302.751V303.789H262.011H267.332V304.958V306.126H273.821H280.309V304.958V303.789H284.592H288.874V302.751V301.712H292.119H295.363V300.674V299.635H296.401H297.439V298.596V297.558H298.477H299.516V296.389V295.221H300.684H301.851V293.144V291.067H302.89H303.928V286.782V282.498H304.966H306.004V279.253V276.007H304.966H303.928V272.761V269.516H302.9H301.873L301.797 267.374L301.722 265.231L300.619 265.152C299.521 265.072 299.516 265.067 299.516 264.048V263.024H297.439H295.363V261.986V260.947H293.157H290.951V259.936V258.924L288.874 258.74L286.798 258.556V257.545V256.533H282.515H278.233V255.495V254.456H274.988H271.744V253.417V252.379H268.653H265.562L265.378 250.172L265.194 247.965H264.187C263.208 247.965 263.179 247.939 263.179 247.056C263.179 246.171 263.206 246.147 264.203 246.147C265.221 246.147 265.226 246.142 265.306 245.044C265.385 243.946 265.391 243.94 266.488 243.861C267.586 243.781 267.591 243.776 267.591 242.757V241.733H272.782H277.973V242.757C277.973 243.776 277.979 243.781 279.076 243.861C280.174 243.94 280.18 243.946 280.259 245.044C280.339 246.142 280.344 246.147 281.362 246.147H282.386V248.224V250.302H292.119H301.851V246.017V241.733H300.684H299.516V239.526V237.319H298.477H297.439V236.281V235.242H296.401H295.363V234.203V233.165H294.195H293.027V231.996V230.828H289.912H286.798V229.789V228.751H273.821H260.843V229.789ZM335.852 231.996V235.242H334.837H333.822L333.638 237.449L333.455 239.656H332.447H331.44V242.772V245.888H330.401H329.363V249.133V252.379H328.325H327.287V255.495V258.61H326.286H325.286L325.12 260.363C325.029 261.327 324.954 262.787 324.953 263.609L324.951 265.102H323.913H322.875V267.309V269.516H321.836H320.798V272.761V276.007H319.76H318.722V279.123V282.238H317.684H316.646V285.484V288.73H315.478H314.31V291.975V295.221H313.271H312.233V298.337V301.453H311.195H310.157V302.621V303.789H320.928H331.699V301.712V299.635H332.737H333.776V296.389V293.144H334.814H335.852V292.105V291.067H347.661H359.471V292.105V293.144H360.509H361.547V296.389V299.635H362.585H363.623V301.712V303.789H374.394H385.166V301.582V299.375H384.127H383.089V296.26V293.144H382.051H381.013V291.494C381.013 290.587 380.938 289.126 380.846 288.249L380.679 286.653H379.678H378.677V284.445V282.238H377.639H376.601V279.123V276.007H375.562H374.524V272.761V269.516H373.494H372.464L372.391 266.335L372.318 263.154L371.215 263.075L370.112 262.995V259.894V256.793H369.074H368.036V254.586V252.379H366.997H365.959V249.133V245.888H364.929H363.899L363.826 242.707L363.753 239.526L362.65 239.446L361.547 239.367V236.266V233.165H360.509H359.471V230.958V228.751H347.661H335.852V231.996ZM382.83 229.919V231.088H381.792H380.753L380.799 233.23C380.824 234.417 380.888 234.88 380.943 234.268C381.039 233.203 381.074 233.165 381.936 233.165H382.83V235.372V237.579H381.792H380.753V238.617V239.656H381.792H382.83V241.733V243.81H381.792C380.756 243.81 380.753 243.813 380.753 244.834C380.753 245.853 380.759 245.858 381.856 245.938C382.954 246.017 382.96 246.023 383.039 247.121L383.119 248.224H393.616H404.112V276.007V303.789H413.975H423.838V276.007V248.224L428.056 248.175C430.375 248.148 434.171 248.163 436.491 248.209L440.708 248.293V247.22V246.147H441.747H442.785V247.186V248.224H443.823H444.861V247.186V246.147H446.029H447.197V237.449V228.751H415.013H382.83V229.919ZM132.628 253.547V256.793H131.59H130.551V261.077V265.361H129.513H128.475V268.607V271.853H127.437H126.399V273.763V275.673L127.994 275.84C130.06 276.056 139.608 276.056 141.674 275.84L143.269 275.673V274.672C143.269 273.676 143.263 273.67 142.231 273.67H141.193V269.516V265.361H140.025H138.857V262.116V258.87H137.819H136.78V254.586V250.302H134.704H132.628V253.547ZM346.753 252.379V254.456H345.715H344.677L344.675 256.079C344.674 256.971 344.598 258.49 344.507 259.454L344.342 261.207H343.341H342.341V265.361V269.516H341.302H340.264V272.631V275.747H347.661H355.058V272.631V269.516H354.02H352.982V265.361V261.207H351.981H350.981L350.815 259.454C350.724 258.49 350.649 256.971 350.648 256.079L350.646 254.456H349.608H348.57V252.379V250.302H347.661H346.753V252.379ZM425.773 284.575C425.773 290.502 425.807 292.926 425.849 289.963C425.891 287 425.891 282.151 425.849 279.188C425.807 276.224 425.773 278.649 425.773 284.575ZM100.617 327.331C100.522 327.426 100.444 327.952 100.444 328.499C100.444 329.487 100.437 329.495 99.4059 329.495H98.3677V334.817V340.14H99.3911C100.409 340.14 100.414 340.146 100.494 341.244L100.574 342.347L102.715 342.423L104.856 342.498V341.472V340.447L107.062 340.263L109.269 340.079V339.104V338.13L107.196 337.949C106.056 337.85 105.005 337.842 104.86 337.931C104.715 338.02 104.597 338.554 104.597 339.117C104.597 340.113 104.573 340.14 103.688 340.14C102.801 340.14 102.78 340.116 102.78 339.102V338.063H101.742H100.704V334.963V331.863L101.677 331.782C102.622 331.704 102.653 331.669 102.73 330.598C102.807 329.529 102.838 329.495 103.703 329.495C104.57 329.495 104.597 329.525 104.597 330.518C104.597 331.081 104.715 331.614 104.86 331.704C105.005 331.793 106.056 331.785 107.196 331.686L109.269 331.505V330.515C109.269 329.535 109.256 329.524 108.166 329.444C107.068 329.365 107.062 329.359 106.983 328.261L106.903 327.158H103.846C102.165 327.158 100.712 327.236 100.617 327.331ZM115.498 328.196C115.498 329.23 115.493 329.235 114.49 329.235H113.483L113.299 331.442L113.115 333.649H112.1H111.085V334.817V335.986H112.258H113.43L113.361 338.128L113.292 340.27L114.395 340.35C115.492 340.429 115.498 340.435 115.498 341.453V342.477H117.147C118.054 342.477 119.514 342.402 120.391 342.31L121.986 342.143V341.142C121.986 340.152 121.999 340.14 122.988 340.14H123.989L124.12 337.349C124.191 335.814 124.193 333.886 124.124 333.065L123.998 331.572H122.992H121.986V330.403V329.235H120.948H119.91V328.196V327.158H117.704H115.498V328.196ZM128.333 327.486C128.264 327.666 128.238 331.084 128.276 335.08L128.345 342.347L129.448 342.427L130.551 342.507V338.208V333.909H131.59H132.628V335.986V338.063H133.666H134.704V339.231C134.704 340.558 134.639 340.534 137.526 340.232L139.127 340.065L139.057 334.715L138.987 329.365H137.948H136.91L136.837 332.545L136.764 335.726H135.864C134.986 335.726 134.964 335.7 134.964 334.688V333.649H133.796H132.628V331.572V329.495H131.59H130.551V328.326V327.158H129.505C128.901 327.158 128.405 327.297 128.333 327.486ZM143.269 333.764V340.4H144.292C145.282 340.4 145.317 340.431 145.416 341.374C145.472 341.909 145.537 340.916 145.561 339.167L145.605 335.986H146.513C147.4 335.986 147.422 336.011 147.422 337.024V338.063H148.59H149.758V340.27V342.477H150.773H151.787L151.949 340.335C152.038 339.157 152.077 336.207 152.037 333.779L151.964 329.365L150.861 329.285L149.758 329.205V331.427V333.649H148.72H147.681V332.61C147.681 331.574 147.68 331.572 146.654 331.572H145.626L145.55 329.43L145.475 327.288L144.372 327.208L143.269 327.128V333.764ZM158.323 328.326V329.495H157.155H155.987V334.817V340.14H157.155H158.323V341.309V342.477H162.605H166.888V341.309V340.14H163.773H160.659V338.063V335.986H163.773H166.888V334.785V333.584L163.708 333.681L160.529 333.779L160.449 332.675L160.369 331.572H162.59H164.811V330.533V329.495H165.85H166.888V328.326V327.158H162.605H158.323V328.326ZM173.29 327.331C173.195 327.426 173.117 327.886 173.117 328.354C173.117 329.148 173.053 329.209 172.144 329.284C171.199 329.362 171.168 329.397 171.091 330.468C171.011 331.566 171.006 331.572 169.987 331.572H168.964V334.817V338.063H169.987C171.006 338.063 171.011 338.068 171.091 339.167C171.168 340.234 171.201 340.273 172.129 340.35C173.029 340.425 173.092 340.487 173.167 341.388L173.247 342.347L175.388 342.423L177.529 342.498V341.449V340.4H178.697C180.026 340.4 180.022 340.415 179.698 337.322L179.532 335.726H178.53H177.529V337.933V340.14H176.491H175.453V339.102V338.063H174.415H173.376V334.817V331.572H174.415H175.453V330.533V329.495H176.491H177.529V330.678V331.861L178.632 331.781L179.735 331.702L179.814 330.468L179.894 329.235H178.711H177.529V328.196V327.158H175.496C174.378 327.158 173.385 327.236 173.29 327.331ZM184.018 329.365V331.572H186.094H188.17V336.895V342.217H189.338H190.506V336.895V331.572H191.545H192.583V329.365V327.158H188.3H184.018V329.365ZM196.796 334.753L196.865 342.347L197.968 342.427L199.071 342.507V334.832V327.158H197.9H196.728L196.796 334.753ZM207.377 328.196V329.235H206.339H205.3V330.403V331.572H204.262H203.224V334.817V338.063H204.262H205.3V339.231V340.4H206.339H207.377V341.438V342.477H209.583H211.789V341.453C211.789 340.435 211.795 340.429 212.892 340.35C213.99 340.27 213.996 340.265 214.075 339.167C214.155 338.068 214.16 338.063 215.178 338.063H216.201V334.817V331.572H215.178C214.16 331.572 214.155 331.566 214.075 330.468C213.996 329.37 213.99 329.365 212.892 329.285C211.795 329.205 211.789 329.2 211.789 328.182V327.158H209.583H207.377V328.196ZM220.354 328.326V329.495H219.316H218.278V333.221C218.278 335.271 218.203 337.667 218.111 338.544L217.944 340.14H220.317H222.69V338.063V335.986H223.598H224.507V338.048V340.11L225.61 340.19C226.708 340.27 226.713 340.276 226.793 341.374C226.872 342.472 226.878 342.477 227.896 342.477H228.919V335.841V329.205L227.816 329.285L226.713 329.365L226.64 332.545L226.567 335.726H225.667H224.766V333.649V331.572H223.752H222.737L222.553 329.365L222.369 327.158H221.362H220.354V328.326ZM248.126 328.167C248.126 329.203 248.123 329.205 247.022 329.285L245.919 329.365L245.846 332.545L245.774 335.726H244.873H243.973V333.649V331.572H242.949C241.931 331.572 241.926 331.566 241.846 330.468C241.767 329.368 241.764 329.365 240.649 329.284L239.531 329.204L239.611 330.453C239.69 331.69 239.699 331.702 240.657 331.782L241.624 331.862L241.696 336.066L241.767 340.27L242.87 340.35C243.967 340.429 243.973 340.435 243.973 341.453C243.973 342.463 243.986 342.477 244.946 342.476L245.919 342.475L246.01 339.295C246.06 337.546 246.118 336.098 246.14 336.077C246.161 336.055 247.084 335.954 248.19 335.852L250.202 335.665V338.033V340.4H252.408H254.614V336.116V331.831H255.652H256.691V329.495V327.158H255.683H254.676L254.492 329.365L254.308 331.572H253.293C252.282 331.572 252.278 331.576 252.278 332.61C252.278 333.623 252.255 333.649 251.378 333.649H250.478L250.405 330.468L250.332 327.288L249.229 327.208L248.126 327.128V328.167ZM258.94 327.331C258.845 327.426 258.767 330.405 258.767 333.952V340.4H259.378C259.714 340.4 260.706 340.325 261.584 340.233L263.179 340.066V334.795V329.524L262.076 329.444C260.978 329.365 260.973 329.359 260.893 328.261C260.817 327.204 260.778 327.158 259.963 327.158C259.495 327.158 259.035 327.236 258.94 327.331ZM265.256 328.321V329.495H266.294H267.332V330.533C267.332 331.571 267.333 331.572 268.365 331.572H269.398L269.468 336.96L269.538 342.347L270.641 342.427L271.744 342.507V337.039V331.572H273.961H276.177L276.102 329.43L276.027 327.288L270.641 327.217L265.256 327.147V328.321ZM278.146 327.331C278.051 327.426 277.973 330.405 277.973 333.952V340.4H278.584C278.92 340.4 279.913 340.325 280.79 340.233L282.386 340.066V339.065C282.386 338.069 282.379 338.063 281.347 338.063H280.309V337.024V335.986H283.416H286.522L286.595 339.167L286.668 342.347L287.771 342.427L288.874 342.507V334.817V327.128L287.771 327.208L286.668 327.288L286.595 330.468L286.522 333.649H284.454H282.386V331.587V329.524L281.282 329.444C280.185 329.365 280.179 329.359 280.1 328.261C280.023 327.204 279.984 327.158 279.17 327.158C278.702 327.158 278.241 327.236 278.146 327.331ZM303.841 327.331C303.746 327.426 303.668 327.893 303.668 328.37C303.668 329.206 303.634 329.235 302.63 329.235H301.592V330.403V331.572H300.554H299.516V334.817V338.063H300.554H301.592V339.231V340.4H302.63H303.668V341.438V342.477H305.874H308.081V341.438C308.081 340.402 308.083 340.4 309.103 340.4C309.666 340.4 310.2 340.281 310.289 340.137C310.378 339.992 310.37 338.94 310.271 337.8L310.09 335.726H309.085H308.081V336.895V338.063H307.042H306.004V339.102V340.14H304.966H303.928V337.933V335.726H302.89C301.876 335.726 301.851 335.705 301.851 334.817C301.851 333.93 301.876 333.909 302.89 333.909H303.928V332.708V331.508L307.107 331.605L310.287 331.702V330.533V329.365L309.184 329.285C308.086 329.205 308.081 329.2 308.081 328.182V327.158H306.048C304.929 327.158 303.936 327.236 303.841 327.331ZM318.722 328.196V329.235H317.684H316.646V330.403V331.572H315.478H314.31V334.817V338.063H315.478H316.646V339.231V340.4H317.684H318.722V341.438V342.477H320.928H323.134V341.438V340.4H324.172H325.211V339.231V338.063H326.211H327.212L327.362 336.44C327.444 335.548 327.445 334.087 327.364 333.195L327.215 331.572H326.213H325.211V330.403V329.235H324.172H323.134V328.196V327.158H320.928H318.722V328.196ZM337.928 330.403V333.649H336.89H335.852V332.61V331.572H334.814H333.776V330.403C333.776 329.077 333.84 329.1 330.959 329.402L329.363 329.569V334.854V340.14H331.584H333.805L333.725 339.037C333.648 337.966 333.617 337.931 332.673 337.853C331.752 337.776 331.699 337.723 331.699 336.879V335.986H333.776H335.852V338.063V340.14H336.875C337.894 340.14 337.899 340.146 337.978 341.244C338.058 342.345 338.06 342.347 339.096 342.347H340.134L340.203 334.753L340.272 327.158H339.1H337.928V330.403ZM344.474 330.453L344.547 333.779L345.52 333.859L346.493 333.94V337.04V340.14H347.517C348.535 340.14 348.54 340.146 348.62 341.244C348.699 342.342 348.705 342.348 349.803 342.427L350.906 342.507V341.323V340.14H351.907H352.908L353.075 338.544C353.167 337.667 353.242 336.206 353.242 335.299V333.649H354.288H355.334L355.261 330.468L355.188 327.288L354.085 327.208L352.982 327.128V329.35V331.572H351.977H350.973L350.791 333.649L350.611 335.726H349.72H348.829V333.649V331.572H347.801H346.774L346.698 329.43L346.623 327.288L345.512 327.207L344.401 327.127L344.474 330.453ZM359.38 328.91C359.289 329.874 359.214 332.328 359.213 334.363L359.211 338.063H358.173H357.135V339.102V340.14H358.303H359.471V341.309V342.477H363.753H368.036V341.309V340.14H364.791H361.547V338.063V335.986H364.791H368.036V334.817V333.649H364.791H361.547V332.61V331.572H363.753H365.959V330.533V329.495H366.997H368.036V328.326V327.158H363.791H359.546L359.38 328.91ZM372.188 334.817V342.507L373.291 342.427L374.394 342.347L374.466 338.128L374.537 333.909H375.439H376.341V335.986V338.063H377.509H378.677V339.231V340.4H380.883H383.089V334.817V329.235H381.921H380.753V332.481V335.726H379.715H378.677V334.688V333.649H377.639H376.601V331.572V329.495H375.577C374.559 329.495 374.554 329.489 374.474 328.391C374.395 327.293 374.389 327.287 373.291 327.208L372.188 327.128V334.817ZM393.588 327.486C393.519 327.666 393.494 331.084 393.532 335.08L393.601 342.347L397.948 342.418L402.296 342.49V341.315V340.14H399.051H395.807V338.063V335.986H399.051H402.296V334.817V333.649H399.051H395.807V332.61V331.572H399.051H402.296V329.365V327.158H398.005C394.787 327.158 393.683 327.24 393.588 327.486ZM406.448 334.817V342.507L407.551 342.427L408.655 342.347L408.726 338.128L408.797 333.909H409.699H410.601V335.986V338.063H411.624C412.643 338.063 412.648 338.068 412.728 339.167L412.807 340.27L414.04 340.349L415.273 340.428V341.453C415.273 342.445 415.3 342.477 416.158 342.477H417.043L417.211 340.335C417.304 339.157 417.344 335.739 417.3 332.74L417.22 327.288L416.116 327.208L415.013 327.128V331.427V335.726H413.975H412.937V333.649V331.572H411.899H410.861V330.403V329.235H409.838C408.844 329.235 408.813 329.208 408.735 328.261C408.657 327.316 408.622 327.285 407.551 327.208L406.448 327.128V334.817ZM423.578 328.326V329.495H422.577H421.576L421.409 331.091C421.317 331.968 421.242 333.645 421.242 334.817C421.242 335.989 421.317 337.667 421.409 338.544L421.576 340.14H422.577H423.578V341.309V342.477H425.785H427.991V341.465V340.454L430.067 340.27L432.143 340.086V338.934V337.782L430.002 337.858L427.861 337.933L427.781 339.037C427.704 340.106 427.673 340.14 426.808 340.14C425.938 340.14 425.914 340.112 425.914 339.102V338.063H424.876H423.838V334.963V331.863L424.811 331.782C425.756 331.704 425.787 331.669 425.864 330.598C425.942 329.529 425.972 329.495 426.837 329.495C427.705 329.495 427.731 329.525 427.731 330.518C427.731 331.081 427.852 331.616 428 331.708C428.148 331.799 429.141 331.792 430.206 331.692L432.143 331.511V330.503C432.143 329.5 432.138 329.495 431.105 329.495H430.067V328.326V327.158H426.823H423.578V328.326ZM436.416 327.479C436.345 327.663 436.319 331.084 436.357 335.08L436.426 342.347H440.708H444.991L445.071 341.244L445.151 340.14H441.891H438.632V338.063V335.986H441.876H445.121V334.777V333.569L441.876 333.733L438.632 333.898V332.735V331.572H440.838H443.044V330.533C443.044 329.523 443.068 329.495 443.938 329.495C444.799 329.495 444.835 329.534 444.936 330.598C444.994 331.205 445.03 330.708 445.016 329.495L444.991 327.288L440.768 327.216C437.509 327.161 436.515 327.221 436.416 327.479ZM387.242 335.841V342.477H388.257H389.272L389.441 340.335C389.534 339.157 389.573 336.207 389.529 333.779L389.448 329.365L388.345 329.285L387.242 329.205V335.841ZM117.834 330.533V331.572H116.666H115.498V334.817V338.063H116.666H117.834V339.102C117.834 340.116 117.855 340.14 118.742 340.14C119.627 340.14 119.65 340.113 119.65 339.116C119.65 338.098 119.656 338.093 120.753 338.013L121.857 337.933L121.887 334.896L121.918 331.858L120.849 331.78C119.791 331.702 119.779 331.69 119.701 330.598C119.623 329.529 119.593 329.495 118.727 329.495C117.858 329.495 117.834 329.523 117.834 330.533ZM318.931 330.598C318.852 331.696 318.846 331.702 317.749 331.781L316.646 331.861V334.817V337.774L317.749 337.853C318.846 337.933 318.852 337.939 318.931 339.037C319.011 340.135 319.016 340.14 320.034 340.14C321.055 340.14 321.058 340.138 321.058 339.102C321.058 338.091 321.082 338.063 321.951 338.063C322.817 338.063 322.847 338.028 322.925 336.96C323.002 335.888 323.033 335.854 323.978 335.776C324.924 335.697 324.951 335.666 324.951 334.672C324.951 333.679 324.925 333.649 324.058 333.649C323.214 333.649 323.161 333.596 323.085 332.675C323.007 331.73 322.972 331.699 321.901 331.622C320.804 331.542 320.798 331.537 320.798 330.518C320.798 329.525 320.772 329.495 319.905 329.495C319.039 329.495 319.009 329.529 318.931 330.598ZM206.663 331.762L205.56 331.861V334.832V337.803H206.598H207.636V338.972V340.14H209.713H211.789V338.063V335.986H212.827H213.865V334.947V333.909H212.827H211.789V332.74V331.572L209.778 331.617C208.671 331.642 207.27 331.707 206.663 331.762Z" fill="#838383"/>
</svg>
