<svg width="286" height="21" viewBox="0 0 286 21" fill="none" xmlns="http://www.w3.org/2000/svg">
<path d="M164.805 19.3549H162.111L161.573 15.8587H158.232L157.694 19.3549H155L158.448 1.00008H161.249L164.805 19.3549ZM161.249 13.5644L159.956 5.26101L158.663 13.5644H161.249Z" fill="black"/>
<path d="M175.796 3.4036H171.055V8.86634H175.149V11.2699H171.162V19.3548H168.469V1H175.903V3.4036H175.796Z" fill="black"/>
<path d="M188.404 17.716C188.404 18.8085 187.865 19.3548 186.788 19.3548H181.077C180 19.3548 179.461 18.8085 179.461 17.716V2.7481C179.461 1.65555 180 1.10928 181.077 1.10928H186.788C187.865 1.10928 188.404 1.65555 188.404 2.7481V6.68126H185.71V3.40362H182.155V17.0605H185.71V11.9255H183.663V9.52188H188.404V17.716Z" fill="black"/>
<path d="M201.654 19.3548H198.961V11.1607H195.297V19.3548H192.604V1H195.297V8.64783H198.961V1H201.654V19.3548Z" fill="black"/>
<path d="M215.123 19.3548H212.43L211.891 15.8586H208.551L208.012 19.3548H205.318L208.766 1H211.568L215.123 19.3548ZM211.46 13.5643L210.167 5.26093L208.874 13.5643H211.46Z" fill="black"/>
<path d="M227.838 19.3548H225.468L221.158 7.77379C221.265 8.32006 221.373 8.75708 221.373 9.08485V19.3548H218.787V1H221.158L225.468 12.3625C225.36 11.8162 225.252 11.3792 225.252 11.0514V1H227.838V19.3548Z" fill="black"/>
<path d="M234.842 19.3548H232.148V1H234.842V19.3548Z" fill="black"/>
<path d="M247.773 17.716C247.773 18.8085 247.234 19.3548 246.156 19.3548H240.661C239.584 19.3548 239.045 18.8085 239.045 17.716V13.3458H241.739V17.0605H245.079V13.4551L239.691 8.21083C239.26 7.77381 239.153 7.33679 239.153 6.79052V2.7481C239.153 1.65555 239.691 1.10928 240.769 1.10928H246.264C247.342 1.10928 247.88 1.65555 247.88 2.7481V6.89977H245.187V3.29437H241.846V6.57201L247.234 11.707C247.665 12.0347 247.773 12.581 247.773 13.2365V17.716Z" fill="black"/>
<path d="M259.841 3.4036H256.824V19.3548H254.13V3.4036H251.113V1H259.733V3.4036H259.841Z" fill="black"/>
<path d="M272.553 19.3548H269.859L269.321 15.8586H265.981L265.442 19.3548H262.748L266.196 1H268.997L272.553 19.3548ZM268.89 13.5643L267.597 5.26093L266.304 13.5643H268.89Z" fill="black"/>
<path d="M285.27 19.3548H282.899L278.589 7.77379C278.697 8.32006 278.805 8.75708 278.805 9.08485V19.3548H276.219V1H278.589L282.899 12.3625C282.791 11.8162 282.684 11.3792 282.684 11.0514V1H285.27V19.3548V19.3548Z" fill="black"/>
<path d="M11.0666 0.121124L8.39117 8.60055C8.02633 9.44849 7.6615 10.9021 7.05345 12.8403V20.3506H4.01317V12.8403C3.89156 12.1135 3.64833 11.5078 3.40511 10.6599C2.91867 9.32737 2.67545 8.72168 2.67545 8.60055L0 0.121124C0 0.121124 0 0.121135 0 0H3.16189L5.59411 8.84283L8.02633 0L11.0666 0.121124C11.0666 0.121124 11.0666 -1.1092e-05 11.0666 0.121124Z" fill="black"/>
<path d="M22.255 20.3506H13.7422V1.52588e-05H22.1334V2.66497H16.7825V8.60056H21.4037V11.2655H16.7825V17.6857H22.255V20.3506Z" fill="black"/>
<path d="M33.5654 20.3506H25.5391V1.52588e-05H28.5793V17.6857H33.5654V20.3506Z" fill="black"/>
<path d="M44.6318 20.3506H36.6055V1.52588e-05H39.6457V17.6857H44.6318V20.3506Z" fill="black"/>
<path d="M57.8877 18.5337C57.8877 19.745 57.2797 20.3507 56.0636 20.3507H49.3749C48.1588 20.3507 47.5508 19.745 47.5508 18.5337V1.9382C47.5508 0.726851 48.1588 0.121178 49.3749 0.121178H56.0636C57.2797 0.121178 57.8877 0.726851 57.8877 1.9382V18.5337ZM54.8474 17.6857V2.54387H50.5911V17.6857H54.8474Z" fill="black"/>
<path d="M76.6132 1.52588e-05L73.5729 20.3506H70.5327L68.7085 8.84285C68.7085 8.47944 68.7085 7.75264 68.5869 7.02583C68.5869 7.38923 68.5869 8.11604 68.4653 8.84285L66.6411 20.3506H63.6008L60.5605 1.52588e-05H63.6008L65.1818 12.1135C65.1818 12.4769 65.1818 13.2037 65.3034 13.9305C65.3034 13.5671 65.3034 12.8403 65.425 12.1135L67.2492 1.52588e-05H69.803L71.6272 12.1135C71.6272 12.4769 71.7488 13.2037 71.7488 13.9305C71.7488 13.5671 71.7488 12.8403 71.8704 12.1135L73.4513 1.52588e-05H76.6132Z" fill="black"/>
<path d="M96.0712 11.0233C96.0712 12.2346 95.4631 12.9614 94.247 12.9614H89.261V20.3506H86.2207V1.52588e-05H94.247C95.4631 1.52588e-05 96.0712 0.605688 96.0712 1.81703V11.0233ZM93.0309 10.4176V2.66497H89.261V10.4176H93.0309Z" fill="black"/>
<path d="M109.817 20.3506H106.776L106.168 16.4743H102.398L101.79 20.3506H98.75L102.763 1.52588e-05H105.925L109.817 20.3506ZM105.682 13.9305L104.222 4.72426L102.763 13.9305H105.682Z" fill="black"/>
<path d="M122.705 18.5337C122.705 19.745 122.097 20.3507 120.881 20.3507H114.435C113.219 20.3507 112.611 19.745 112.611 18.5337V1.9382C112.611 0.726851 113.219 0.121178 114.435 0.121178H120.881C122.097 0.121178 122.705 0.726851 122.705 1.9382V6.29905H119.665V2.66501H115.652V17.8068H119.665V12.1135H117.476V9.56968H122.827V18.5337H122.705Z" fill="black"/>
<path d="M134.866 20.3506H126.354V1.52588e-05H134.745V2.66497H129.394V8.60056H134.015V11.2655H129.394V17.6857H134.866V20.3506Z" fill="black"/>
<path d="M147.88 18.5337C147.88 19.745 147.272 20.3507 146.056 20.3507H139.853C138.637 20.3507 138.029 19.745 138.029 18.5337V13.6883H141.07V17.8068H144.84V13.8094L138.759 7.99493C138.273 7.51039 138.151 7.02587 138.151 6.42019V1.9382C138.151 0.726851 138.759 0.121178 139.975 0.121178H146.177C147.393 0.121178 148.001 0.726851 148.001 1.9382V6.54132H144.961V2.66501H141.191V6.29905L147.272 11.9924C147.758 12.3558 147.88 12.9615 147.88 13.6883V18.5337Z" fill="black"/>
</svg>
