<svg width="678" height="297" viewBox="0 0 678 297" fill="none" xmlns="http://www.w3.org/2000/svg">
<path fill-rule="evenodd" clip-rule="evenodd" d="M241.628 49.25C239.668 57.638 236.441 71.7 234.458 80.5C232.476 89.3 230.631 97.287 230.359 98.25C229.896 99.892 231.99 100 264.433 100C283.445 100 299 100.215 299 100.478C299 100.74 288.2 115.797 275 133.938C261.8 152.079 251 167.159 251 167.449C251 167.74 269.563 168.095 292.25 168.239L333.5 168.5L333.771 189.428C333.979 205.503 333.747 210.543 332.771 211.163C332.072 211.606 307.837 211.976 278.917 211.985C249.996 211.993 226.1 212.233 225.816 212.518C225.531 212.803 228.258 227.653 231.877 245.518L238.455 278L310.978 277.985C389.275 277.969 390.332 277.906 400.817 272.593C409.56 268.162 415.898 259.855 417.901 250.201C419.313 243.394 419.371 165.978 417.971 157C416.563 147.968 411.01 136.962 405.644 132.564C396.638 125.184 385.574 122.022 368.71 122.008L359.919 122L392.018 79.429C409.672 56.016 424.364 36.216 424.665 35.429C425.138 34.197 412.826 34 335.204 34H245.193L241.628 49.25ZM490.108 35.082C473.204 38.401 459.625 51.761 455.54 69.093C453.284 78.663 453.284 233.337 455.54 242.907C458.5 255.464 467.622 267.705 477.942 272.97C487.571 277.883 489.451 278 558.684 278C628.255 278 628.614 277.977 639.714 272.821C649.838 268.119 660.202 254.761 662.939 242.888C664.317 236.914 664.317 75.086 662.939 69.112C660.193 57.197 650.706 44.925 640.077 39.539C629.533 34.196 626.967 34.027 558 34.127C523.075 34.178 492.524 34.607 490.108 35.082ZM538.763 101.532C532.989 104.735 533 104.632 533 155.482C533 206.628 533.087 207.442 538.872 210.434C543.405 212.778 573.729 212.697 578.722 210.328C584.997 207.35 585 207.327 585 155.017V107.971L581.579 104.235L578.158 100.5L559.829 100.257C544.97 100.06 540.982 100.301 538.763 101.532Z" fill="#838383"/>
<path fill-rule="evenodd" clip-rule="evenodd" d="M145 24.2051C83.1195 25.1661 55.2345 26.4051 47.5005 28.5351C32.7605 32.5961 23.0835 39.9561 17.5305 51.3281C11.1565 64.3801 11.0395 66.3661 11.6245 151.586C12.1955 234.646 12.7435 244.342 17.5515 256.351C23.0075 269.981 35.0245 278.992 52.5005 282.559C59.5065 283.989 66.3995 284.117 108 283.59C160.969 282.919 189.997 282.044 190.007 281.117C190.011 280.778 185.217 261.23 179.355 237.678L168.695 194.856L140.848 195.575L113 196.293V154.147V112L127.25 111.968C147.79 111.921 171.394 110.985 172.149 110.186C172.506 109.809 174.646 102.3 176.905 93.5001C179.163 84.7001 183.501 68.0501 186.544 56.5001C193.846 28.7841 194.618 25.1781 193.455 24.2391C192.93 23.8141 171.125 23.7991 145 24.2051ZM109.299 26.0341C92.6895 26.3271 78.7395 26.9341 78.2995 27.3811C77.8605 27.8281 89.2005 27.9271 103.5 27.6011C117.8 27.2751 143 26.7411 159.5 26.4141C176 26.0871 189.725 25.5901 190 25.3101C190.497 24.8031 167.06 25.0131 109.299 26.0341ZM57.6015 28.1051C54.3565 28.5781 51.4315 29.2491 51.1015 29.5961C50.7705 29.9421 52.9755 29.8901 56.0005 29.4791C59.0255 29.0681 64.8755 28.4051 69.0005 28.0061L76.5005 27.2801L70.0005 27.2621C66.4255 27.2521 60.8455 27.6311 57.6015 28.1051ZM43.0005 31.5001C39.8365 33.3091 40.3935 33.3181 46.0005 31.5521C49.1935 30.5461 49.7745 30.1251 48.0005 30.1021C46.6255 30.0851 44.3755 30.7141 43.0005 31.5001ZM159.797 30.7451C164.361 30.9301 171.561 30.9291 175.797 30.7421C180.034 30.5551 176.3 30.4041 167.5 30.4051C158.7 30.4061 155.234 30.5591 159.797 30.7451ZM189.217 31.2381C188.63 31.9451 187.505 35.2191 186.718 38.5121C185.93 41.8051 181.846 57.6151 177.643 73.6431C173.439 89.6721 170 103.6 170 104.593C170 107.846 171.677 104.682 173.229 98.5001C174.058 95.2001 177.028 83.7251 179.829 73.0001C190.017 33.9911 190.883 30.5491 190.586 30.2531C190.421 30.0871 189.805 30.5311 189.217 31.2381ZM103.264 31.7181C104.784 31.9471 107.034 31.9411 108.264 31.7041C109.494 31.4671 108.25 31.2791 105.5 31.2861C102.75 31.2941 101.744 31.4881 103.264 31.7181ZM116.75 31.7371C119.638 31.9391 124.362 31.9391 127.25 31.7371C130.137 31.5351 127.775 31.3701 122 31.3701C116.225 31.3701 113.862 31.5351 116.75 31.7371ZM68.2505 32.7161C69.7635 32.9451 72.2375 32.9451 73.7505 32.7161C75.2635 32.4871 74.0255 32.3001 71.0005 32.3001C67.9755 32.3001 66.7375 32.4871 68.2505 32.7161ZM33.5005 35.913C30.7505 37.505 26.9255 40.5221 25.0005 42.6191L21.5005 46.4301L26.1515 42.2861C28.7085 40.0071 32.6465 37.2011 34.9015 36.0511C37.1555 34.9001 39.0005 33.7431 39.0005 33.4801C39.0005 32.7491 38.8565 32.813 33.5005 35.913ZM25.6375 44.9571C23.0875 47.6841 21.0005 50.4591 21.0005 51.1241C21.0005 51.7891 21.1665 52.1461 21.3685 51.9171C23.7515 49.2221 30.9325 40.0001 30.6485 40.0001C30.4425 40.0001 28.1875 42.2311 25.6375 44.9571ZM18.7085 54.6831C16.9385 57.6171 14.1065 69.8711 13.4925 77.2501C12.8765 84.6481 12.9935 86.0001 14.2485 86.0001C15.4225 86.0001 15.8465 83.9611 16.2775 76.2501C16.5765 70.8881 17.5475 63.8481 18.4355 60.6081C19.8875 55.3051 20.0165 52.5151 18.7085 54.6831ZM13.3405 142.25C13.6925 170.988 13.9855 200.912 13.9905 208.75C13.9995 221.352 14.1925 223 15.6595 223C17.1715 223 17.2595 221.208 16.6615 202.75C16.3005 191.613 16.0045 161.688 16.0035 136.25C16.0005 93.9381 15.8605 90.0001 14.3505 90.0001C12.8305 90.0001 12.7505 94.1031 13.3405 142.25ZM21.2525 105.5C21.2635 107.7 21.4685 108.482 21.7075 107.238C21.9465 105.994 21.9375 104.194 21.6875 103.238C21.4375 102.282 21.2415 103.3 21.2525 105.5ZM19.3925 118C19.3925 125.425 19.5495 128.463 19.7425 124.75C19.9345 121.037 19.9345 114.963 19.7425 111.25C19.5495 107.537 19.3925 110.575 19.3925 118ZM116.768 105.725C118.565 105.947 121.265 105.943 122.768 105.715C124.271 105.486 122.8 105.304 119.5 105.31C116.2 105.315 114.971 105.502 116.768 105.725ZM115.5 110.012C113.85 110.439 125.325 110.549 141 110.256C156.675 109.963 169.688 109.561 169.917 109.362C170.754 108.634 118.408 109.26 115.5 110.012ZM108.34 138.662C108.703 152.776 109 171.001 109 179.162C109 188.387 109.378 194 110 194C110.65 194 111 179.833 111 153.5C111 116.428 110.859 113 109.34 113C107.819 113 107.735 115.152 108.34 138.662ZM19.4075 152C19.4075 161.075 19.5595 164.787 19.7445 160.25C19.9295 155.713 19.9295 148.287 19.7445 143.75C19.5595 139.213 19.4075 142.925 19.4075 152ZM105.37 183C105.37 188.775 105.535 191.137 105.737 188.25C105.939 185.363 105.939 180.637 105.737 177.75C105.535 174.863 105.37 177.225 105.37 183ZM116.999 197.75C116.999 198.453 158.557 198.346 164 197.629C165.375 197.448 155.363 197.232 141.75 197.15C128.137 197.067 117 197.338 116.999 197.75ZM166.608 201.825C166.328 202.278 170.117 218.783 175.028 238.503C182.722 269.392 185.177 277.156 186.756 275.578C187.346 274.988 168.595 201 167.856 201C167.45 201 166.889 201.371 166.608 201.825ZM119.728 202.722C121.503 202.943 124.653 202.946 126.728 202.73C128.802 202.513 127.35 202.333 123.5 202.328C119.65 202.324 117.952 202.501 119.728 202.722ZM134.25 202.728C136.313 202.944 139.688 202.944 141.75 202.728C143.813 202.513 142.125 202.336 138 202.336C133.875 202.336 132.188 202.513 134.25 202.728ZM14.3045 234.75C15.0165 243.94 18.5705 256.329 20.3105 255.688C20.9645 255.447 21.3335 254.631 21.1295 253.875C20.9265 253.119 20.1645 250.307 19.4375 247.627C18.7115 244.946 17.8075 239.209 17.4295 234.877C16.8995 228.799 16.3955 227 15.2235 227C13.9435 227 13.7985 228.221 14.3045 234.75ZM20.0585 231.583C20.0895 233.738 20.5075 237.3 20.9855 239.5C21.6305 242.465 21.7115 241.56 21.2975 236C20.6935 227.867 19.9655 225.274 20.0585 231.583ZM30.9785 260.97C32.1425 262.603 33.6045 264.255 34.2285 264.641C34.8525 265.027 34.1035 263.69 32.5635 261.671C29.2205 257.289 27.9605 256.731 30.9785 260.97ZM22.0005 260.022C22.0005 261.659 29.5145 269.324 33.1615 271.408C35.9635 273.008 35.7305 272.627 31.7165 269.043C29.0865 266.693 26.2615 263.473 25.4415 261.885C23.9815 259.063 22.0005 257.99 22.0005 260.022ZM171.25 275.716C172.762 275.945 175.238 275.945 176.75 275.716C178.262 275.487 177.025 275.3 174 275.3C170.975 275.3 169.738 275.487 171.25 275.716ZM101.25 276.716C102.763 276.945 105.237 276.945 106.75 276.716C108.263 276.487 107.025 276.3 104 276.3C100.975 276.3 99.7375 276.487 101.25 276.716ZM116.75 276.74C120.188 276.936 125.813 276.936 129.25 276.74C132.688 276.545 129.875 276.385 123 276.385C116.125 276.385 113.313 276.545 116.75 276.74ZM68.2505 277.716C69.7635 277.945 72.2375 277.945 73.7505 277.716C75.2635 277.487 74.0255 277.3 71.0005 277.3C67.9755 277.3 66.7375 277.487 68.2505 277.716ZM79.7625 277.707C81.0065 277.946 82.8065 277.937 83.7625 277.687C84.7185 277.437 83.7005 277.241 81.5005 277.252C79.3005 277.263 78.5185 277.468 79.7625 277.707ZM53.0005 281.032C54.9255 281.53 61.0005 282.153 66.5005 282.416C75.9785 282.87 76.1085 282.85 69.0005 282.038C54.3725 280.368 49.1655 280.04 53.0005 281.032ZM106.25 280.749C90.0485 280.911 78.0005 281.421 78.0005 281.946C78.0005 282.838 86.4155 282.743 156.5 281.061L187.5 280.317L161 280.392C146.425 280.434 121.787 280.594 106.25 280.749Z" fill="#838383"/>
</svg>
