<svg width="148" height="34" viewBox="0 0 148 34" fill="none" xmlns="http://www.w3.org/2000/svg">
<path d="M17.1234 2.7449C20.937 2.7449 24.5947 4.24566 27.2929 6.91752C29.9912 9.58937 31.5093 13.2138 31.5139 16.9947H34.2468C34.2495 14.5207 33.7067 12.0761 32.6566 9.83193C31.6064 7.58774 30.0742 5.59823 28.1672 4.00265C26.2602 2.40708 24.0245 1.24401 21.6165 0.594854C19.2086 -0.0543008 16.6867 -0.173849 14.2272 0.244578C11.7678 0.663004 9.43035 1.60929 7.37849 3.0172C5.32662 4.42511 3.60993 6.26062 2.34859 8.39523C1.08725 10.5298 0.311744 12.912 0.0763556 15.3749C-0.159033 17.8378 0.151387 20.3219 0.985884 22.6534L3.56304 21.7617C3.02341 20.2294 2.74857 18.6177 2.75011 16.9947C2.75469 13.2168 4.27048 9.59494 6.965 6.92357C9.65952 4.25221 13.3128 2.74944 17.1234 2.7449Z" fill="black"/>
<path d="M18.4904 17.0289C18.4524 16.6937 18.2912 16.3842 18.0375 16.1593C17.7838 15.9345 17.4555 15.8103 17.1153 15.8103C16.7751 15.8103 16.4467 15.9345 16.1931 16.1593C15.9394 16.3842 15.7782 16.6937 15.7402 17.0289C15.7402 17.0289 15.7402 17.0289 15.7402 17.0289C15.7517 19.9945 16.5465 22.9054 18.0457 25.4717C19.5448 28.038 21.6958 30.1702 24.2846 31.6559L25.651 29.3239C23.4823 28.0686 21.6811 26.2744 20.4254 24.1182C19.1697 21.9621 18.5027 19.5186 18.4904 17.0289Z" fill="black"/>
<path d="M23.7473 16.9946C23.6606 15.3131 22.9257 13.7288 21.6945 12.569C20.4633 11.4092 18.8298 10.7625 17.1315 10.7625C15.4331 10.7625 13.7997 11.4092 12.5685 12.569C11.3373 13.7288 10.6024 15.3131 10.5156 16.9946C10.5161 20.1147 11.1803 23.1997 12.4648 26.048C13.7493 28.8964 15.6253 31.4442 17.9703 33.525L19.7 31.5188C17.6609 29.6789 16.0334 27.4359 14.9222 24.9343C13.811 22.4327 13.2408 19.7281 13.2484 16.9946C13.3142 16.0181 13.7519 15.1027 14.4729 14.4341C15.1939 13.7655 16.1442 13.3935 17.1315 13.3935C18.1187 13.3935 19.0691 13.7655 19.7901 14.4341C20.511 15.1027 20.9487 16.0181 21.0145 16.9946C21.0133 19.4272 21.7727 21.8004 23.1883 23.7873C24.6039 25.7742 26.606 27.2772 28.9189 28.0892L29.8356 25.5342C28.0531 24.9121 26.5097 23.7561 25.419 22.2262C24.3283 20.6963 23.7441 18.8681 23.7473 16.9946Z" fill="black"/>
<path d="M28.9896 16.9947C28.9896 13.868 27.7367 10.8694 25.5067 8.65855C23.2767 6.44767 20.2521 5.20561 17.0983 5.20561C13.9446 5.20561 10.92 6.44767 8.68994 8.65855C6.4599 10.8694 5.20708 13.868 5.20708 16.9947C5.19719 22.3582 6.77919 27.6061 9.75602 32.0847L12.1256 30.5928C9.42578 26.5632 7.98759 21.8323 7.99179 16.9947C8.09428 14.6593 9.10215 12.4534 10.8052 10.8368C12.5083 9.22021 14.7751 8.31783 17.1329 8.31783C19.4907 8.31783 21.7575 9.22021 23.4606 10.8368C25.1637 12.4534 26.1715 14.6593 26.274 16.9947C26.2739 18.5043 26.7984 19.968 27.7593 21.1391C28.7201 22.3103 30.0586 23.1176 31.5494 23.4251L32.1029 20.7672C31.2253 20.5896 30.4364 20.1173 29.8692 19.4301C29.3021 18.7428 28.9914 17.8826 28.9896 16.9947Z" fill="black"/>
<path d="M52.3383 21.1959C52.8306 21.2097 53.3206 21.124 53.7785 20.9442C54.2364 20.7644 54.6526 20.4941 55.0019 20.1499L58.3228 22.0361C57.6325 22.9674 56.7193 23.7136 55.6655 24.2076C54.6116 24.7015 53.4504 24.9276 52.2864 24.8655C51.2908 24.9377 50.2911 24.8023 49.3516 24.468C48.4121 24.1336 47.5537 23.6078 46.8317 22.9244C46.1098 22.241 45.5403 21.4151 45.1601 20.5001C44.7799 19.5851 44.5973 18.6013 44.6241 17.612C44.5876 16.6438 44.7533 15.6785 45.1109 14.7768C45.4685 13.8751 46.0102 13.0563 46.7021 12.372C47.394 11.6877 48.221 11.1526 49.1314 10.8002C50.0418 10.4478 51.0158 10.2857 51.9923 10.3242C52.9425 10.3086 53.8857 10.4873 54.7632 10.8491C55.6406 11.2108 56.4335 11.7479 57.0924 12.4269C57.7512 13.1058 58.262 13.912 58.5927 14.7953C58.9234 15.6785 59.067 16.6198 59.0146 17.5606C59.0222 18.1359 58.9701 18.7105 58.859 19.2753H49.0174C49.2791 19.9142 49.7469 20.4491 50.3477 20.7966C50.9485 21.1441 51.6485 21.2845 52.3383 21.1959ZM54.8981 16.1887C54.702 15.5584 54.3072 15.0069 53.7718 14.6152C53.2364 14.2235 52.5886 14.0121 51.9231 14.0121C51.2577 14.0121 50.6098 14.2235 50.0745 14.6152C49.5391 15.0069 49.1443 15.5584 48.9482 16.1887H54.8981Z" fill="black"/>
<path d="M74.6508 16.0515V24.4882H70.4997V16.6517C70.5358 16.3253 70.4993 15.995 70.3928 15.6841C70.2862 15.3731 70.1122 15.0891 69.883 14.8521C69.6538 14.615 69.375 14.4307 69.0661 14.312C68.7573 14.1934 68.4259 14.1433 68.0955 14.1653C66.5734 14.1653 65.5183 15.0398 65.5183 16.9947V24.4882H61.3672V5.26562H65.5183V12.039C65.9941 11.4623 66.6014 11.006 67.2901 10.7079C67.9788 10.4097 68.7291 10.2782 69.4792 10.3242C70.2116 10.3219 70.9362 10.4734 71.6053 10.7687C72.2744 11.0639 72.8729 11.4963 73.3614 12.0373C73.8499 12.5783 74.2173 13.2157 74.4396 13.9076C74.6618 14.5994 74.7338 15.3301 74.6508 16.0515Z" fill="black"/>
<path d="M82.7615 14.714V19.5668C82.7615 20.75 83.782 20.8529 85.6155 20.75V24.4882C80.1844 25.0369 78.6104 23.4079 78.6104 19.5668V14.714H76.3965V10.7529H78.6104V8.14644L82.7615 6.89465V10.7529H85.6155V14.714H82.7615Z" fill="black"/>
<path d="M94.7149 21.1959C95.2073 21.2097 95.6973 21.124 96.1552 20.9442C96.6131 20.7644 97.0293 20.4941 97.3786 20.1499L100.699 22.0361C100.008 22.9662 99.0947 23.7116 98.0412 24.2055C96.9876 24.6993 95.8268 24.9261 94.6631 24.8655C93.6667 24.9375 92.6662 24.8021 91.7259 24.468C90.7855 24.1338 89.926 23.6082 89.2028 22.9251C88.4795 22.2419 87.9084 21.4163 87.5262 20.5013C87.144 19.5863 86.9591 18.6021 86.9835 17.612C86.9469 16.6438 87.1127 15.6785 87.4703 14.7768C87.8279 13.8751 88.3696 13.0563 89.0615 12.372C89.7533 11.6877 90.5804 11.1526 91.4908 10.8002C92.4012 10.4478 93.3752 10.2857 94.3517 10.3242C95.3033 10.3063 96.2484 10.4832 97.128 10.8439C98.0075 11.2046 98.8024 11.7413 99.4632 12.4205C100.124 13.0997 100.636 13.9067 100.968 14.7912C101.3 15.6756 101.444 16.6184 101.391 17.5606C101.403 18.1369 101.345 18.7126 101.218 19.2753H91.394C91.6558 19.9142 92.1236 20.4491 92.7244 20.7966C93.3252 21.1441 94.0252 21.2845 94.7149 21.1959ZM97.2575 16.1887C97.1072 15.5438 96.731 14.9726 96.1957 14.5769C95.6604 14.1812 95.0008 13.9868 94.3344 14.0281C93.653 13.972 92.9738 14.1587 92.4189 14.5548C91.8641 14.9509 91.47 15.5303 91.3076 16.1887H97.2575Z" fill="black"/>
<path d="M113.915 20.3556C113.915 23.5279 111.147 24.8655 108.172 24.8655C106.963 24.974 105.749 24.7218 104.686 24.1413C103.623 23.5607 102.759 22.6783 102.205 21.6074L105.803 19.5668C105.951 20.0655 106.267 20.4988 106.698 20.7951C107.129 21.0914 107.649 21.2328 108.172 21.1958C109.158 21.1958 109.66 20.8872 109.66 20.3385C109.66 18.8295 102.845 19.6183 102.845 14.8683C102.845 11.8846 105.388 10.3242 108.276 10.3242C109.358 10.2864 110.431 10.5389 111.381 11.0549C112.331 11.571 113.122 12.3316 113.673 13.2565L110.213 15.1599C110.062 14.7974 109.805 14.488 109.475 14.2712C109.146 14.0543 108.758 13.9398 108.363 13.9424C107.636 13.9424 107.204 14.2167 107.204 14.714C107.117 16.3259 113.915 15.2799 113.915 20.3556Z" fill="black"/>
<path d="M130.053 10.7529V24.471H125.902V23.185C125.388 23.7566 124.751 24.2071 124.039 24.5038C123.327 24.8005 122.557 24.9357 121.785 24.8997C120.867 24.8626 119.966 24.6445 119.134 24.2583C118.302 23.872 117.556 23.3253 116.939 22.6501C116.322 21.9749 115.847 21.1846 115.542 20.3255C115.237 19.4664 115.107 18.5556 115.161 17.6463C115.098 16.7314 115.22 15.8132 115.521 14.9461C115.822 14.079 116.295 13.2805 116.913 12.5978C117.53 11.9152 118.28 11.3623 119.117 10.9717C119.954 10.5812 120.861 10.361 121.785 10.3242C122.557 10.2882 123.327 10.4235 124.039 10.7201C124.751 11.0168 125.388 11.4674 125.902 12.039V10.7529H130.053ZM125.902 17.612C125.935 17.1631 125.874 16.7123 125.723 16.2878C125.572 15.8632 125.335 15.4741 125.026 15.1445C124.717 14.815 124.342 14.5521 123.926 14.3724C123.51 14.1927 123.061 14.0999 122.607 14.0999C122.153 14.0999 121.704 14.1927 121.288 14.3724C120.871 14.5521 120.497 14.815 120.188 15.1445C119.879 15.4741 119.641 15.8632 119.491 16.2878C119.34 16.7123 119.279 17.1631 119.312 17.612C119.279 18.0608 119.34 18.5116 119.491 18.9362C119.641 19.3607 119.879 19.7499 120.188 20.0794C120.497 20.409 120.871 20.6718 121.288 20.8515C121.704 21.0312 122.153 21.124 122.607 21.124C123.061 21.124 123.51 21.0312 123.926 20.8515C124.342 20.6718 124.717 20.409 125.026 20.0794C125.335 19.7499 125.572 19.3607 125.723 18.9362C125.874 18.5116 125.935 18.0608 125.902 17.612Z" fill="black"/>
<path d="M147.986 17.612C148.04 18.5199 147.91 19.4294 147.606 20.2874C147.302 21.1455 146.829 21.9349 146.214 22.6099C145.599 23.2849 144.855 23.832 144.025 24.2192C143.195 24.6064 142.295 24.8261 141.379 24.8655C140.604 24.9041 139.831 24.77 139.115 24.4733C138.4 24.1765 137.761 23.7246 137.245 23.1507V24.4539H133.094V5.26562H137.245V12.039C137.761 11.4651 138.4 11.0131 139.115 10.7164C139.831 10.4196 140.604 10.2856 141.379 10.3242C142.298 10.3634 143.201 10.5842 144.033 10.9736C144.866 11.3629 145.611 11.9131 146.227 12.5918C146.842 13.2705 147.315 14.0641 147.617 14.9261C147.919 15.7881 148.044 16.7013 147.986 17.612ZM143.835 17.612C143.868 17.1631 143.807 16.7123 143.656 16.2878C143.505 15.8633 143.268 15.4741 142.959 15.1445C142.65 14.815 142.275 14.5521 141.859 14.3724C141.443 14.1927 140.994 14.0999 140.54 14.0999C140.086 14.0999 139.637 14.1927 139.221 14.3724C138.804 14.5521 138.43 14.815 138.121 15.1445C137.812 15.4741 137.574 15.8633 137.424 16.2878C137.273 16.7123 137.212 17.1631 137.245 17.612C137.212 18.0609 137.273 18.5116 137.424 18.9362C137.574 19.3607 137.812 19.7499 138.121 20.0794C138.43 20.409 138.804 20.6718 139.221 20.8515C139.637 21.0313 140.086 21.124 140.54 21.124C140.994 21.124 141.443 21.0313 141.859 20.8515C142.275 20.6718 142.65 20.409 142.959 20.0794C143.268 19.7499 143.505 19.3607 143.656 18.9362C143.807 18.5116 143.868 18.0609 143.835 17.612Z" fill="black"/>
</svg>
