<svg width="148" height="17" viewBox="0 0 148 17" fill="none" xmlns="http://www.w3.org/2000/svg">
<path d="M9.78189 16.3357V10.0753H3.42366V16.3357H0V0.684708H3.42366V6.8473H9.78189V0.684708H13.3034V16.3357H9.78189Z" fill="black"/>
<path d="M16.7266 0H20.3459V3.03239H16.7266V0ZM16.8244 4.30403H20.248V16.3358H16.8244V4.30403Z" fill="black"/>
<path d="M31.1085 16.3358L27.9783 11.4448L26.8045 12.7165V16.3358H23.3809V0H26.8045V8.70588L30.8151 4.30403H34.8257L30.326 8.99934L35.0213 16.3358H31.1085Z" fill="black"/>
<path d="M47.1483 11.4448H38.8337C39.1271 13.0099 40.2031 13.7925 41.7682 13.7925C42.942 13.7925 43.7246 13.4012 44.7028 12.5208L46.6592 14.2816C45.5832 15.651 43.9202 16.5314 41.7682 16.5314C38.1489 16.5314 35.5078 13.9881 35.5078 10.3688V10.271C35.5078 6.84734 37.9533 4.01059 41.4748 4.01059C45.4853 4.01059 47.3439 7.14079 47.3439 10.4666C47.1483 10.9557 47.1483 11.1514 47.1483 11.4448ZM41.3769 6.74952C40.0075 6.74952 39.0293 7.72771 38.7358 9.29281H43.8224C43.6268 7.82553 42.7464 6.74952 41.3769 6.74952Z" fill="black"/>
<path d="M58.6914 16.4335H55.659L49.3008 0.684708H53.1157L57.2241 11.6404L61.3325 0.684708H65.0496L58.6914 16.4335Z" fill="black"/>
<path d="M76.6912 11.5426H68.3766C68.6701 13.1077 69.7461 13.8903 71.3112 13.8903C72.485 13.8903 73.2676 13.499 74.2458 12.6186L76.2021 14.3794C75.1261 15.7489 73.4632 16.6292 71.3112 16.6292C67.6919 16.6292 65.0508 14.0859 65.0508 10.4666C65.0508 7.04297 67.4963 4.20622 71.0177 4.20622C75.0283 4.20622 76.8869 7.33643 76.8869 10.6623C76.6912 10.9557 76.6912 11.1514 76.6912 11.5426ZM70.8221 6.84733C69.4526 6.84733 68.4744 7.82552 68.181 9.39062H73.2676C73.1697 7.82552 72.2894 6.84733 70.8221 6.84733Z" fill="black"/>
<path d="M86.8623 16.3358V9.68408C86.8623 8.11898 86.0797 7.23861 84.8081 7.23861C83.5365 7.23861 82.6561 8.11898 82.6561 9.68408V16.3358H79.2324V4.30405H82.6561V5.96697C83.4386 4.98878 84.4168 4.01059 86.1776 4.01059C88.7209 4.01059 90.286 5.67351 90.286 8.51026V16.238C90.1881 16.3358 86.8623 16.3358 86.8623 16.3358Z" fill="black"/>
<path d="M97.2309 16.5314C95.1768 16.5314 93.7095 15.651 93.7095 12.9121V7.2386H92.2422V4.30404H93.7095V1.27165H97.1331V4.30404H99.9699V7.2386H97.1331V12.3252C97.1331 13.1077 97.4266 13.499 98.2091 13.499C98.796 13.499 99.383 13.3034 99.8721 13.1077V15.8467C99.1873 16.2379 98.307 16.5314 97.2309 16.5314Z" fill="black"/>
<path d="M109.948 16.3358V14.6729C109.166 15.651 108.187 16.6292 106.427 16.6292C103.883 16.6292 102.318 14.9663 102.318 12.1296V4.40187H105.742V11.0536C105.742 12.6187 106.525 13.499 107.796 13.499C109.068 13.499 109.948 12.6187 109.948 11.0536V4.40187H113.372V16.4336C113.372 16.3358 109.948 16.3358 109.948 16.3358Z" fill="black"/>
<path d="M123.447 7.62985C121.197 7.62985 119.828 8.99932 119.828 11.8361V16.2379H116.404V4.30401H119.828V6.74948C120.513 5.08656 121.687 4.01056 123.643 4.10838V7.62985H123.447Z" fill="black"/>
<path d="M136.556 11.5426H128.242C128.535 13.1077 129.611 13.8903 131.176 13.8903C132.35 13.8903 133.133 13.499 134.111 12.6186L136.067 14.3794C134.991 15.7489 133.328 16.6292 131.176 16.6292C127.557 16.6292 124.916 14.0859 124.916 10.4666C124.916 7.04297 127.361 4.20622 130.883 4.20622C134.894 4.20622 136.752 7.33643 136.752 10.6623C136.556 10.9557 136.556 11.1514 136.556 11.5426ZM130.785 6.84733C129.416 6.84733 128.437 7.82552 128.242 9.39062H133.328C133.035 7.82552 132.155 6.84733 130.785 6.84733Z" fill="black"/>
<path d="M143.306 16.5314C141.643 16.5314 139.784 15.9445 138.121 14.6728L139.588 12.423C140.86 13.4012 142.229 13.8903 143.403 13.8903C144.381 13.8903 144.871 13.499 144.871 13.0099C144.871 12.2274 143.697 12.0317 142.425 11.6405C140.762 11.1514 138.806 10.3688 138.806 8.02116C138.806 5.57569 140.762 4.20622 143.208 4.20622C144.773 4.20622 146.436 4.69532 147.707 5.57569L146.436 7.92334C145.262 7.23861 144.088 6.84733 143.208 6.84733C142.327 6.84733 141.936 7.23861 141.936 7.7277C141.936 8.41244 143.11 8.70589 144.381 9.19499C146.044 9.7819 148.001 10.5645 148.001 12.7165C147.903 15.3576 145.947 16.5314 143.306 16.5314Z" fill="black"/>
</svg>
