<svg width="25" height="25" viewBox="0 0 25 25" fill="none" xmlns="http://www.w3.org/2000/svg">
<path d="M12.5 0C5.59627 0 0 5.59627 0 12.5C0 19.4037 5.59627 25 12.5 25C19.4037 25 25 19.4037 25 12.5C25 5.59627 19.4037 0 12.5 0ZM12.5 24.6074C5.81351 24.6074 0.392641 19.1865 0.392641 12.5C0.392641 5.81351 5.81351 0.392641 12.5 0.392641C19.1865 0.392641 24.6074 5.81351 24.6074 12.5C24.6074 19.1865 19.1865 24.6074 12.5 24.6074ZM12.5 1.42591C6.38407 1.42591 1.42591 6.38407 1.42591 12.5C1.42591 18.6159 6.38407 23.5741 12.5 23.5741C18.6159 23.5741 23.5741 18.6159 23.5741 12.5C23.5741 6.38407 18.6159 1.42591 12.5 1.42591ZM12.5 23.1608C6.6124 23.1608 1.83921 18.3881 1.83921 12.5C1.83921 6.6119 6.6124 1.83921 12.5 1.83921C18.3876 1.83921 23.1608 6.6124 23.1608 12.5C23.1608 18.3876 18.3876 23.1608 12.5 23.1608ZM21.8866 14.9461C21.663 15.8069 21.3216 16.6328 20.872 17.4002L17.1356 15.5917L20.2344 18.3548C19.698 19.0639 19.0671 19.6962 18.3594 20.2344L15.5973 17.131L17.4057 20.8745C16.6397 21.326 15.8149 21.6691 14.9546 21.8942L13.5791 17.939L13.8206 22.119C13.3866 22.1784 12.9435 22.2097 12.4934 22.2097C12.0433 22.2097 11.6003 22.1784 11.1663 22.119L11.4063 17.9627L10.0378 21.8957C9.1774 21.6709 8.35222 21.3283 7.58569 20.8775L9.39667 17.1305L6.63105 20.2374C5.92312 19.6993 5.29196 19.0672 4.75504 18.3584L7.85937 15.5912L4.11643 17.4022C3.66667 16.6348 3.32507 15.809 3.10131 14.9481L7.0247 13.5817L2.88004 13.8216C2.82157 13.3896 2.79032 12.9486 2.79032 12.5005C2.79032 12.0469 2.82208 11.6013 2.88206 11.1643L7.03427 11.4047L3.10585 10.0358C3.33118 9.17504 3.67431 8.34953 4.1255 7.58266L7.86643 9.39315L4.76563 6.62802C5.30369 5.9201 5.93587 5.28894 6.64466 4.75202L9.40474 7.85333L7.59879 4.11492C8.36555 3.66542 9.19072 3.32399 10.0509 3.1003L11.4052 6.99395L11.1678 2.88054C11.6018 2.82107 12.0444 2.78982 12.4945 2.78982C12.9446 2.78982 13.3871 2.82107 13.8211 2.88054L13.5822 7.02167L14.9456 3.10232C15.816 3.32913 16.6391 3.6744 17.3967 4.11895L15.5912 7.85484L18.3493 4.75655C19.0577 5.29343 19.6892 5.9248 20.2263 6.63306L17.129 9.39365L20.8649 7.58619C21.3156 8.35276 21.6583 9.17794 21.8831 10.0383L17.9612 11.4042L22.1064 11.1648C22.1663 11.6013 22.1981 12.0469 22.1981 12.5C22.1981 12.9476 22.1673 13.3886 22.1084 13.8201L17.9693 13.5806L21.8866 14.9461Z" fill="black"/>
</svg>
