<svg width="421" height="206" viewBox="0 0 421 206" fill="none" xmlns="http://www.w3.org/2000/svg">
<path d="M164.211 114.119C170.33 114.119 175.29 109.158 175.29 103.039C175.29 96.9201 170.33 91.9596 164.211 91.9596C158.092 91.9596 153.131 96.9201 153.131 103.039C153.131 109.158 158.092 114.119 164.211 114.119Z" fill="#1D1D1B"/>
<path d="M194.838 114.119C200.957 114.119 205.918 109.158 205.918 103.039C205.918 96.9201 200.957 91.9596 194.838 91.9596C188.719 91.9596 183.759 96.9201 183.759 103.039C183.759 109.158 188.719 114.119 194.838 114.119Z" fill="#1D1D1B"/>
<path d="M225.466 114.119C231.585 114.119 236.546 109.158 236.546 103.039C236.546 96.9201 231.585 91.9596 225.466 91.9596C219.347 91.9596 214.387 96.9201 214.387 103.039C214.387 109.158 219.347 114.119 225.466 114.119Z" fill="#1D1D1B"/>
<path d="M194.838 83.4918C200.957 83.4918 205.918 78.5314 205.918 72.4123C205.918 66.2933 200.957 61.3329 194.838 61.3329C188.719 61.3329 183.759 66.2933 183.759 72.4123C183.759 78.5314 188.719 83.4918 194.838 83.4918Z" fill="#1D1D1B"/>
<path d="M194.838 52.865C200.957 52.865 205.918 47.9046 205.918 41.7855C205.918 35.6665 200.957 30.7061 194.838 30.7061C188.719 30.7061 183.759 35.6665 183.759 41.7855C183.759 47.9046 188.719 52.865 194.838 52.865Z" fill="#1D1D1B"/>
<path d="M164.211 83.4918C170.33 83.4918 175.29 78.5314 175.29 72.4123C175.29 66.2933 170.33 61.3329 164.211 61.3329C158.092 61.3329 153.131 66.2933 153.131 72.4123C153.131 78.5314 158.092 83.4918 164.211 83.4918Z" fill="#1D1D1B"/>
<path d="M164.211 52.865C170.33 52.865 175.29 47.9046 175.29 41.7855C175.29 35.6665 170.33 30.7061 164.211 30.7061C158.092 30.7061 153.131 35.6665 153.131 41.7855C153.131 47.9046 158.092 52.865 164.211 52.865Z" fill="#1D1D1B"/>
<path d="M225.466 83.4918C231.585 83.4918 236.546 78.5314 236.546 72.4123C236.546 66.2933 231.585 61.3329 225.466 61.3329C219.347 61.3329 214.387 66.2933 214.387 72.4123C214.387 78.5314 219.347 83.4918 225.466 83.4918Z" fill="#1D1D1B"/>
<path d="M225.466 52.865C231.585 52.865 236.546 47.9046 236.546 41.7855C236.546 35.6665 231.585 30.7061 225.466 30.7061C219.347 30.7061 214.387 35.6665 214.387 41.7855C214.387 47.9046 219.347 52.865 225.466 52.865Z" fill="#1D1D1B"/>
<path d="M194.838 22.159C200.957 22.159 205.918 17.1985 205.918 11.0795C205.918 4.96045 200.957 0 194.838 0C188.719 0 183.759 4.96045 183.759 11.0795C183.759 17.1985 188.719 22.159 194.838 22.159Z" fill="#1D1D1B"/>
<path d="M164.211 22.159C170.33 22.159 175.29 17.1985 175.29 11.0795C175.29 4.96045 170.33 0 164.211 0C158.092 0 153.131 4.96045 153.131 11.0795C153.131 17.1985 158.092 22.159 164.211 22.159Z" fill="#1D1D1B"/>
<path d="M225.466 22.159C231.585 22.159 236.546 17.1985 236.546 11.0795C236.546 4.96045 231.585 0 225.466 0C219.347 0 214.387 4.96045 214.387 11.0795C214.387 17.1985 219.347 22.159 225.466 22.159Z" fill="#1D1D1B"/>
<path d="M256.094 83.4918C262.213 83.4918 267.174 78.5314 267.174 72.4123C267.174 66.2933 262.213 61.3329 256.094 61.3329C249.975 61.3329 245.015 66.2933 245.015 72.4123C245.015 78.5314 249.975 83.4918 256.094 83.4918Z" fill="#1D1D1B"/>
<path d="M256.094 52.865C262.213 52.865 267.174 47.9046 267.174 41.7855C267.174 35.6665 262.213 30.7061 256.094 30.7061C249.975 30.7061 245.015 35.6665 245.015 41.7855C245.015 47.9046 249.975 52.865 256.094 52.865Z" fill="#1D1D1B"/>
<path d="M194.838 175.373C200.957 175.373 205.918 170.413 205.918 164.294C205.918 158.175 200.957 153.214 194.838 153.214C188.719 153.214 183.759 158.175 183.759 164.294C183.759 170.413 188.719 175.373 194.838 175.373Z" fill="#1D1D1B"/>
<path d="M164.211 175.373C170.33 175.373 175.29 170.413 175.29 164.294C175.29 158.175 170.33 153.214 164.211 153.214C158.092 153.214 153.131 158.175 153.131 164.294C153.131 170.413 158.092 175.373 164.211 175.373Z" fill="#1D1D1B"/>
<path d="M225.466 175.373C231.585 175.373 236.546 170.413 236.546 164.294C236.546 158.175 231.585 153.214 225.466 153.214C219.347 153.214 214.387 158.175 214.387 164.294C214.387 170.413 219.347 175.373 225.466 175.373Z" fill="#1D1D1B"/>
<path d="M194.838 206C200.957 206 205.918 201.04 205.918 194.921C205.918 188.802 200.957 183.841 194.838 183.841C188.719 183.841 183.759 188.802 183.759 194.921C183.759 201.04 188.719 206 194.838 206Z" fill="#1D1D1B"/>
<path d="M164.211 206C170.33 206 175.29 201.04 175.29 194.921C175.29 188.802 170.33 183.841 164.211 183.841C158.092 183.841 153.131 188.802 153.131 194.921C153.131 201.04 158.092 206 164.211 206Z" fill="#1D1D1B"/>
<path d="M225.466 206C231.585 206 236.546 201.04 236.546 194.921C236.546 188.802 231.585 183.841 225.466 183.841C219.347 183.841 214.387 188.802 214.387 194.921C214.387 201.04 219.347 206 225.466 206Z" fill="#1D1D1B"/>
<path d="M194.838 144.745C200.957 144.745 205.918 139.785 205.918 133.666C205.918 127.547 200.957 122.586 194.838 122.586C188.719 122.586 183.759 127.547 183.759 133.666C183.759 139.785 188.719 144.745 194.838 144.745Z" fill="#1D1D1B"/>
<path d="M164.211 144.745C170.33 144.745 175.29 139.785 175.29 133.666C175.29 127.547 170.33 122.586 164.211 122.586C158.092 122.586 153.131 127.547 153.131 133.666C153.131 139.785 158.092 144.745 164.211 144.745Z" fill="#1D1D1B"/>
<path d="M225.466 144.745C231.585 144.745 236.546 139.785 236.546 133.666C236.546 127.547 231.585 122.586 225.466 122.586C219.347 122.586 214.387 127.547 214.387 133.666C214.387 139.785 219.347 144.745 225.466 144.745Z" fill="#1D1D1B"/>
<path d="M256.094 144.745C262.213 144.745 267.174 139.785 267.174 133.666C267.174 127.547 262.213 122.586 256.094 122.586C249.975 122.586 245.015 127.547 245.015 133.666C245.015 139.785 249.975 144.745 256.094 144.745Z" fill="#1D1D1B"/>
<path d="M256.094 175.373C262.213 175.373 267.174 170.413 267.174 164.294C267.174 158.175 262.213 153.214 256.094 153.214C249.975 153.214 245.015 158.175 245.015 164.294C245.015 170.413 249.975 175.373 256.094 175.373Z" fill="#1D1D1B"/>
<path d="M11.0795 114.119C17.1985 114.119 22.159 109.158 22.159 103.039C22.159 96.9201 17.1985 91.9596 11.0795 91.9596C4.96046 91.9596 0 96.9201 0 103.039C0 109.158 4.96046 114.119 11.0795 114.119Z" fill="#1D1D1B"/>
<path d="M41.7035 83.4918C47.8225 83.4918 52.783 78.5314 52.783 72.4123C52.783 66.2933 47.8225 61.3329 41.7035 61.3329C35.5845 61.3329 30.624 66.2933 30.624 72.4123C30.624 78.5314 35.5845 83.4918 41.7035 83.4918Z" fill="#1D1D1B"/>
<path d="M41.7035 52.865C47.8225 52.865 52.783 47.9046 52.783 41.7855C52.783 35.6665 47.8225 30.7061 41.7035 30.7061C35.5845 30.7061 30.624 35.6665 30.624 41.7855C30.624 47.9046 35.5845 52.865 41.7035 52.865Z" fill="#1D1D1B"/>
<path d="M11.0795 83.4918C17.1985 83.4918 22.159 78.5314 22.159 72.4123C22.159 66.2933 17.1985 61.3329 11.0795 61.3329C4.96046 61.3329 0 66.2933 0 72.4123C0 78.5314 4.96046 83.4918 11.0795 83.4918Z" fill="#1D1D1B"/>
<path d="M11.0795 52.865C17.1985 52.865 22.159 47.9046 22.159 41.7855C22.159 35.6665 17.1985 30.7061 11.0795 30.7061C4.96046 30.7061 0 35.6665 0 41.7855C0 47.9046 4.96046 52.865 11.0795 52.865Z" fill="#1D1D1B"/>
<path d="M72.3309 52.865C78.45 52.865 83.4104 47.9046 83.4104 41.7855C83.4104 35.6665 78.45 30.7061 72.3309 30.7061C66.2119 30.7061 61.2515 35.6665 61.2515 41.7855C61.2515 47.9046 66.2119 52.865 72.3309 52.865Z" fill="#1D1D1B"/>
<path d="M41.7035 22.159C47.8225 22.159 52.783 17.1985 52.783 11.0795C52.783 4.96045 47.8225 0 41.7035 0C35.5845 0 30.624 4.96045 30.624 11.0795C30.624 17.1985 35.5845 22.159 41.7035 22.159Z" fill="#1D1D1B"/>
<path d="M11.0795 22.159C17.1985 22.159 22.159 17.1985 22.159 11.0795C22.159 4.96045 17.1985 0 11.0795 0C4.96046 0 0 4.96045 0 11.0795C0 17.1985 4.96046 22.159 11.0795 22.159Z" fill="#1D1D1B"/>
<path d="M72.3309 22.159C78.45 22.159 83.4104 17.1985 83.4104 11.0795C83.4104 4.96045 78.45 0 72.3309 0C66.2119 0 61.2515 4.96045 61.2515 11.0795C61.2515 17.1985 66.2119 22.159 72.3309 22.159Z" fill="#1D1D1B"/>
<path d="M102.959 22.159C109.078 22.159 114.038 17.1985 114.038 11.0795C114.038 4.96045 109.078 0 102.959 0C96.8398 0 91.8794 4.96045 91.8794 11.0795C91.8794 17.1985 96.8398 22.159 102.959 22.159Z" fill="#1D1D1B"/>
<path d="M41.7035 175.373C47.8225 175.373 52.783 170.413 52.783 164.294C52.783 158.175 47.8225 153.214 41.7035 153.214C35.5845 153.214 30.624 158.175 30.624 164.294C30.624 170.413 35.5845 175.373 41.7035 175.373Z" fill="#1D1D1B"/>
<path d="M11.0795 175.373C17.1985 175.373 22.159 170.413 22.159 164.294C22.159 158.175 17.1985 153.214 11.0795 153.214C4.96046 153.214 0 158.175 0 164.294C0 170.413 4.96046 175.373 11.0795 175.373Z" fill="#1D1D1B"/>
<path d="M72.3309 175.373C78.45 175.373 83.4104 170.413 83.4104 164.294C83.4104 158.175 78.45 153.214 72.3309 153.214C66.2119 153.214 61.2515 158.175 61.2515 164.294C61.2515 170.413 66.2119 175.373 72.3309 175.373Z" fill="#1D1D1B"/>
<path d="M41.7035 206C47.8225 206 52.783 201.04 52.783 194.921C52.783 188.802 47.8225 183.841 41.7035 183.841C35.5845 183.841 30.624 188.802 30.624 194.921C30.624 201.04 35.5845 206 41.7035 206Z" fill="#1D1D1B"/>
<path d="M11.0795 206C17.1985 206 22.159 201.04 22.159 194.921C22.159 188.802 17.1985 183.841 11.0795 183.841C4.96046 183.841 0 188.802 0 194.921C0 201.04 4.96046 206 11.0795 206Z" fill="#1D1D1B"/>
<path d="M72.3309 206C78.45 206 83.4104 201.04 83.4104 194.921C83.4104 188.802 78.45 183.841 72.3309 183.841C66.2119 183.841 61.2515 188.802 61.2515 194.921C61.2515 201.04 66.2119 206 72.3309 206Z" fill="#1D1D1B"/>
<path d="M41.7035 144.745C47.8225 144.745 52.783 139.785 52.783 133.666C52.783 127.547 47.8225 122.586 41.7035 122.586C35.5845 122.586 30.624 127.547 30.624 133.666C30.624 139.785 35.5845 144.745 41.7035 144.745Z" fill="#1D1D1B"/>
<path d="M11.0795 144.745C17.1985 144.745 22.159 139.785 22.159 133.666C22.159 127.547 17.1985 122.586 11.0795 122.586C4.96046 122.586 0 127.547 0 133.666C0 139.785 4.96046 144.745 11.0795 144.745Z" fill="#1D1D1B"/>
<path d="M102.959 206C109.078 206 114.038 201.04 114.038 194.921C114.038 188.802 109.078 183.841 102.959 183.841C96.8398 183.841 91.8794 188.802 91.8794 194.921C91.8794 201.04 96.8398 206 102.959 206Z" fill="#1D1D1B"/>
<path d="M317.346 114.119C323.465 114.119 328.425 109.158 328.425 103.039C328.425 96.9201 323.465 91.9596 317.346 91.9596C311.227 91.9596 306.266 96.9201 306.266 103.039C306.266 109.158 311.227 114.119 317.346 114.119Z" fill="#1D1D1B"/>
<path d="M348.055 114.119C354.174 114.119 359.134 109.158 359.134 103.039C359.134 96.9201 354.174 91.9596 348.055 91.9596C341.936 91.9596 336.975 96.9201 336.975 103.039C336.975 109.158 341.936 114.119 348.055 114.119Z" fill="#1D1D1B"/>
<path d="M378.679 114.119C384.798 114.119 389.758 109.158 389.758 103.039C389.758 96.9201 384.798 91.9596 378.679 91.9596C372.56 91.9596 367.599 96.9201 367.599 103.039C367.599 109.158 372.56 114.119 378.679 114.119Z" fill="#1D1D1B"/>
<path d="M348.055 83.4918C354.174 83.4918 359.134 78.5314 359.134 72.4123C359.134 66.2933 354.174 61.3329 348.055 61.3329C341.936 61.3329 336.975 66.2933 336.975 72.4123C336.975 78.5314 341.936 83.4918 348.055 83.4918Z" fill="#1D1D1B"/>
<path d="M348.055 52.865C354.174 52.865 359.134 47.9046 359.134 41.7855C359.134 35.6665 354.174 30.7061 348.055 30.7061C341.936 30.7061 336.975 35.6665 336.975 41.7855C336.975 47.9046 341.936 52.865 348.055 52.865Z" fill="#1D1D1B"/>
<path d="M317.346 83.4918C323.465 83.4918 328.425 78.5314 328.425 72.4123C328.425 66.2933 323.465 61.3329 317.346 61.3329C311.227 61.3329 306.266 66.2933 306.266 72.4123C306.266 78.5314 311.227 83.4918 317.346 83.4918Z" fill="#1D1D1B"/>
<path d="M317.346 52.865C323.465 52.865 328.425 47.9046 328.425 41.7855C328.425 35.6665 323.465 30.7061 317.346 30.7061C311.227 30.7061 306.266 35.6665 306.266 41.7855C306.266 47.9046 311.227 52.865 317.346 52.865Z" fill="#1D1D1B"/>
<path d="M409.306 114.119C415.425 114.119 420.386 109.158 420.386 103.039C420.386 96.9201 415.425 91.9596 409.306 91.9596C403.187 91.9596 398.227 96.9201 398.227 103.039C398.227 109.158 403.187 114.119 409.306 114.119Z" fill="#1D1D1B"/>
<path d="M378.679 52.865C384.798 52.865 389.758 47.9046 389.758 41.7855C389.758 35.6665 384.798 30.7061 378.679 30.7061C372.56 30.7061 367.599 35.6665 367.599 41.7855C367.599 47.9046 372.56 52.865 378.679 52.865Z" fill="#1D1D1B"/>
<path d="M348.055 22.159C354.174 22.159 359.134 17.1985 359.134 11.0795C359.134 4.96045 354.174 0 348.055 0C341.936 0 336.975 4.96045 336.975 11.0795C336.975 17.1985 341.936 22.159 348.055 22.159Z" fill="#1D1D1B"/>
<path d="M378.679 22.159C384.798 22.159 389.758 17.1985 389.758 11.0795C389.758 4.96045 384.798 0 378.679 0C372.56 0 367.599 4.96045 367.599 11.0795C367.599 17.1985 372.56 22.159 378.679 22.159Z" fill="#1D1D1B"/>
<path d="M409.306 52.865C415.425 52.865 420.386 47.9046 420.386 41.7855C420.386 35.6665 415.425 30.7061 409.306 30.7061C403.187 30.7061 398.227 35.6665 398.227 41.7855C398.227 47.9046 403.187 52.865 409.306 52.865Z" fill="#1D1D1B"/>
<path d="M409.306 22.159C415.425 22.159 420.386 17.1985 420.386 11.0795C420.386 4.96045 415.425 0 409.306 0C403.187 0 398.227 4.96045 398.227 11.0795C398.227 17.1985 403.187 22.159 409.306 22.159Z" fill="#1D1D1B"/>
<path d="M378.679 144.745C384.798 144.745 389.758 139.785 389.758 133.666C389.758 127.547 384.798 122.586 378.679 122.586C372.56 122.586 367.599 127.547 367.599 133.666C367.599 139.785 372.56 144.745 378.679 144.745Z" fill="#1D1D1B"/>
<path d="M378.679 83.4918C384.798 83.4918 389.758 78.5314 389.758 72.4123C389.758 66.2933 384.798 61.3329 378.679 61.3329C372.56 61.3329 367.599 66.2933 367.599 72.4123C367.599 78.5314 372.56 83.4918 378.679 83.4918Z" fill="#1D1D1B"/>
<path d="M409.306 144.745C415.425 144.745 420.386 139.785 420.386 133.666C420.386 127.547 415.425 122.586 409.306 122.586C403.187 122.586 398.227 127.547 398.227 133.666C398.227 139.785 403.187 144.745 409.306 144.745Z" fill="#1D1D1B"/>
<path d="M348.055 144.745C354.174 144.745 359.134 139.785 359.134 133.666C359.134 127.547 354.174 122.586 348.055 122.586C341.936 122.586 336.975 127.547 336.975 133.666C336.975 139.785 341.936 144.745 348.055 144.745Z" fill="#1D1D1B"/>
<path d="M378.679 175.373C384.798 175.373 389.758 170.413 389.758 164.294C389.758 158.175 384.798 153.214 378.679 153.214C372.56 153.214 367.599 158.175 367.599 164.294C367.599 170.413 372.56 175.373 378.679 175.373Z" fill="#1D1D1B"/>
<path d="M409.306 175.373C415.425 175.373 420.386 170.413 420.386 164.294C420.386 158.175 415.425 153.214 409.306 153.214C403.187 153.214 398.227 158.175 398.227 164.294C398.227 170.413 403.187 175.373 409.306 175.373Z" fill="#1D1D1B"/>
<path d="M348.055 175.373C354.174 175.373 359.134 170.413 359.134 164.294C359.134 158.175 354.174 153.214 348.055 153.214C341.936 153.214 336.975 158.175 336.975 164.294C336.975 170.413 341.936 175.373 348.055 175.373Z" fill="#1D1D1B"/>
<path d="M378.679 206C384.798 206 389.758 201.04 389.758 194.921C389.758 188.802 384.798 183.841 378.679 183.841C372.56 183.841 367.599 188.802 367.599 194.921C367.599 201.04 372.56 206 378.679 206Z" fill="#1D1D1B"/>
<path d="M348.055 206C354.174 206 359.134 201.04 359.134 194.921C359.134 188.802 354.174 183.841 348.055 183.841C341.936 183.841 336.975 188.802 336.975 194.921C336.975 201.04 341.936 206 348.055 206Z" fill="#1D1D1B"/>
<path d="M317.346 175.373C323.465 175.373 328.425 170.413 328.425 164.294C328.425 158.175 323.465 153.214 317.346 153.214C311.227 153.214 306.266 158.175 306.266 164.294C306.266 170.413 311.227 175.373 317.346 175.373Z" fill="#1D1D1B"/>
<path d="M317.346 206C323.465 206 328.425 201.04 328.425 194.921C328.425 188.802 323.465 183.841 317.346 183.841C311.227 183.841 306.266 188.802 306.266 194.921C306.266 201.04 311.227 206 317.346 206Z" fill="#1D1D1B"/>
</svg>
