<svg width="627" height="307" viewBox="0 0 627 307" fill="none" xmlns="http://www.w3.org/2000/svg">
<g id="KBS">
<g id="B">
<path id="Vector" d="M244.914 170.127C254.058 170.127 261.47 162.715 261.47 153.571C261.47 144.428 254.058 137.015 244.914 137.015C235.77 137.015 228.358 144.428 228.358 153.571C228.358 162.715 235.77 170.127 244.914 170.127Z" fill="white"/>
<path id="Vector_2" d="M290.589 170.127C299.733 170.127 307.145 162.715 307.145 153.571C307.145 144.428 299.733 137.015 290.589 137.015C281.446 137.015 274.033 144.428 274.033 153.571C274.033 162.715 281.446 170.127 290.589 170.127Z" fill="white"/>
<path id="Vector_3" d="M336.264 170.127C345.407 170.127 352.82 162.715 352.82 153.571C352.82 144.428 345.407 137.015 336.264 137.015C327.12 137.015 319.708 144.428 319.708 153.571C319.708 162.715 327.12 170.127 336.264 170.127Z" fill="white"/>
<path id="Vector_4" d="M290.589 124.456C299.733 124.456 307.145 117.043 307.145 107.9C307.145 98.7561 299.733 91.3437 290.589 91.3437C281.446 91.3437 274.033 98.7561 274.033 107.9C274.033 117.043 281.446 124.456 290.589 124.456Z" fill="white"/>
<path id="Vector_5" d="M290.589 78.784C299.733 78.784 307.145 71.3716 307.145 62.228C307.145 53.0843 299.733 45.672 290.589 45.672C281.446 45.672 274.033 53.0843 274.033 62.228C274.033 71.3716 281.446 78.784 290.589 78.784Z" fill="white"/>
<path id="Vector_6" d="M244.914 124.456C254.058 124.456 261.47 117.043 261.47 107.9C261.47 98.7561 254.058 91.3437 244.914 91.3437C235.77 91.3437 228.358 98.7561 228.358 107.9C228.358 117.043 235.77 124.456 244.914 124.456Z" fill="white"/>
<path id="Vector_7" d="M244.914 78.784C254.058 78.784 261.47 71.3716 261.47 62.228C261.47 53.0843 254.058 45.672 244.914 45.672C235.77 45.672 228.358 53.0843 228.358 62.228C228.358 71.3716 235.77 78.784 244.914 78.784Z" fill="white"/>
<path id="Vector_8" d="M336.264 124.456C345.407 124.456 352.82 117.043 352.82 107.9C352.82 98.7561 345.407 91.3437 336.264 91.3437C327.12 91.3437 319.708 98.7561 319.708 107.9C319.708 117.043 327.12 124.456 336.264 124.456Z" fill="white"/>
<path id="Vector_9" d="M336.264 78.784C345.407 78.784 352.82 71.3716 352.82 62.228C352.82 53.0843 345.407 45.672 336.264 45.672C327.12 45.672 319.708 53.0843 319.708 62.228C319.708 71.3716 327.12 78.784 336.264 78.784Z" fill="white"/>
<path id="Vector_10" d="M290.589 33.1121C299.733 33.1121 307.145 25.6997 307.145 16.556C307.145 7.41241 299.733 0 290.589 0C281.446 0 274.033 7.41241 274.033 16.556C274.033 25.6997 281.446 33.1121 290.589 33.1121Z" fill="white"/>
<path id="Vector_11" d="M244.914 33.1121C254.058 33.1121 261.47 25.6997 261.47 16.556C261.47 7.41241 254.058 0 244.914 0C235.77 0 228.358 7.41241 228.358 16.556C228.358 25.6997 235.77 33.1121 244.914 33.1121Z" fill="white"/>
<path id="Vector_12" d="M336.264 33.1121C345.407 33.1121 352.82 25.6997 352.82 16.556C352.82 7.41241 345.407 0 336.264 0C327.12 0 319.708 7.41241 319.708 16.556C319.708 25.6997 327.12 33.1121 336.264 33.1121Z" fill="white"/>
<path id="Vector_13" d="M381.932 124.456C391.075 124.456 398.488 117.043 398.488 107.9C398.488 98.7561 391.075 91.3437 381.932 91.3437C372.788 91.3437 365.375 98.7561 365.375 107.9C365.375 117.043 372.788 124.456 381.932 124.456Z" fill="white"/>
<path id="Vector_14" d="M381.932 78.784C391.075 78.784 398.488 71.3716 398.488 62.228C398.488 53.0843 391.075 45.672 381.932 45.672C372.788 45.672 365.375 53.0843 365.375 62.228C365.375 71.3716 372.788 78.784 381.932 78.784Z" fill="white"/>
<path id="Vector_15" d="M290.589 261.471C299.733 261.471 307.145 254.059 307.145 244.915C307.145 235.771 299.733 228.359 290.589 228.359C281.446 228.359 274.033 235.771 274.033 244.915C274.033 254.059 281.446 261.471 290.589 261.471Z" fill="white"/>
<path id="Vector_16" d="M244.914 261.471C254.058 261.471 261.47 254.059 261.47 244.915C261.47 235.771 254.058 228.359 244.914 228.359C235.77 228.359 228.358 235.771 228.358 244.915C228.358 254.059 235.77 261.471 244.914 261.471Z" fill="white"/>
<path id="Vector_17" d="M336.264 261.471C345.407 261.471 352.82 254.059 352.82 244.915C352.82 235.771 345.407 228.359 336.264 228.359C327.12 228.359 319.708 235.771 319.708 244.915C319.708 254.059 327.12 261.471 336.264 261.471Z" fill="white"/>
<path id="Vector_18" d="M290.589 307C299.733 307 307.145 299.588 307.145 290.444C307.145 281.3 299.733 273.888 290.589 273.888C281.446 273.888 274.033 281.3 274.033 290.444C274.033 299.588 281.446 307 290.589 307Z" fill="white"/>
<path id="Vector_19" d="M244.914 307C254.058 307 261.47 299.588 261.47 290.444C261.47 281.3 254.058 273.888 244.914 273.888C235.77 273.888 228.358 281.3 228.358 290.444C228.358 299.588 235.77 307 244.914 307Z" fill="white"/>
<path id="Vector_20" d="M336.264 307C345.407 307 352.82 299.588 352.82 290.444C352.82 281.3 345.407 273.888 336.264 273.888C327.12 273.888 319.708 281.3 319.708 290.444C319.708 299.588 327.12 307 336.264 307Z" fill="white"/>
<path id="Vector_21" d="M290.589 215.799C299.733 215.799 307.145 208.387 307.145 199.243C307.145 190.1 299.733 182.687 290.589 182.687C281.446 182.687 274.033 190.1 274.033 199.243C274.033 208.387 281.446 215.799 290.589 215.799Z" fill="white"/>
<path id="Vector_22" d="M244.914 215.799C254.058 215.799 261.47 208.387 261.47 199.243C261.47 190.1 254.058 182.687 244.914 182.687C235.77 182.687 228.358 190.1 228.358 199.243C228.358 208.387 235.77 215.799 244.914 215.799Z" fill="white"/>
<path id="Vector_23" d="M336.264 215.799C345.407 215.799 352.82 208.387 352.82 199.243C352.82 190.1 345.407 182.687 336.264 182.687C327.12 182.687 319.708 190.1 319.708 199.243C319.708 208.387 327.12 215.799 336.264 215.799Z" fill="white"/>
<path id="Vector_24" d="M381.932 215.799C391.075 215.799 398.488 208.387 398.488 199.243C398.488 190.1 391.075 182.687 381.932 182.687C372.788 182.687 365.375 190.1 365.375 199.243C365.375 208.387 372.788 215.799 381.932 215.799Z" fill="white"/>
<path id="Vector_25" d="M381.932 261.471C391.075 261.471 398.488 254.059 398.488 244.915C398.488 235.771 391.075 228.359 381.932 228.359C372.788 228.359 365.375 235.771 365.375 244.915C365.375 254.059 372.788 261.471 381.932 261.471Z" fill="white"/>
</g>
<g id="K">
<path id="Vector_26" d="M16.556 170.127C25.6997 170.127 33.112 162.715 33.112 153.571C33.112 144.428 25.6997 137.015 16.556 137.015C7.41238 137.015 0 144.428 0 153.571C0 162.715 7.41238 170.127 16.556 170.127Z" fill="white"/>
<path id="Vector_27" d="M62.2304 124.456C71.374 124.456 78.7864 117.043 78.7864 107.9C78.7864 98.7561 71.374 91.3437 62.2304 91.3437C53.0867 91.3437 45.6743 98.7561 45.6743 107.9C45.6743 117.043 53.0867 124.456 62.2304 124.456Z" fill="white"/>
<path id="Vector_28" d="M62.2304 78.784C71.374 78.784 78.7864 71.3716 78.7864 62.228C78.7864 53.0843 71.374 45.672 62.2304 45.672C53.0867 45.672 45.6743 53.0843 45.6743 62.228C45.6743 71.3716 53.0867 78.784 62.2304 78.784Z" fill="white"/>
<path id="Vector_29" d="M16.556 124.456C25.6997 124.456 33.112 117.043 33.112 107.9C33.112 98.7561 25.6997 91.3437 16.556 91.3437C7.41238 91.3437 0 98.7561 0 107.9C0 117.043 7.41238 124.456 16.556 124.456Z" fill="white"/>
<path id="Vector_30" d="M16.556 78.784C25.6997 78.784 33.112 71.3716 33.112 62.228C33.112 53.0843 25.6997 45.672 16.556 45.672C7.41238 45.672 0 53.0843 0 62.228C0 71.3716 7.41238 78.784 16.556 78.784Z" fill="white"/>
<path id="Vector_31" d="M107.906 78.784C117.049 78.784 124.462 71.3716 124.462 62.228C124.462 53.0843 117.049 45.672 107.906 45.672C98.762 45.672 91.3496 53.0843 91.3496 62.228C91.3496 71.3716 98.762 78.784 107.906 78.784Z" fill="white"/>
<path id="Vector_32" d="M62.2304 33.1121C71.374 33.1121 78.7864 25.6997 78.7864 16.556C78.7864 7.41241 71.374 0 62.2304 0C53.0867 0 45.6743 7.41241 45.6743 16.556C45.6743 25.6997 53.0867 33.1121 62.2304 33.1121Z" fill="white"/>
<path id="Vector_33" d="M16.556 33.1121C25.6997 33.1121 33.112 25.6997 33.112 16.556C33.112 7.41241 25.6997 0 16.556 0C7.41238 0 0 7.41241 0 16.556C0 25.6997 7.41238 33.1121 16.556 33.1121Z" fill="white"/>
<path id="Vector_34" d="M107.906 33.1121C117.049 33.1121 124.462 25.6997 124.462 16.556C124.462 7.41241 117.049 0 107.906 0C98.762 0 91.3496 7.41241 91.3496 16.556C91.3496 25.6997 98.762 33.1121 107.906 33.1121Z" fill="white"/>
<path id="Vector_35" d="M153.574 33.1121C162.717 33.1121 170.13 25.6997 170.13 16.556C170.13 7.41241 162.717 0 153.574 0C144.43 0 137.018 7.41241 137.018 16.556C137.018 25.6997 144.43 33.1121 153.574 33.1121Z" fill="white"/>
<path id="Vector_36" d="M62.2304 261.471C71.374 261.471 78.7864 254.059 78.7864 244.915C78.7864 235.771 71.374 228.359 62.2304 228.359C53.0867 228.359 45.6743 235.771 45.6743 244.915C45.6743 254.059 53.0867 261.471 62.2304 261.471Z" fill="white"/>
<path id="Vector_37" d="M16.556 261.471C25.6997 261.471 33.112 254.059 33.112 244.915C33.112 235.771 25.6997 228.359 16.556 228.359C7.41238 228.359 0 235.771 0 244.915C0 254.059 7.41238 261.471 16.556 261.471Z" fill="white"/>
<path id="Vector_38" d="M107.906 261.471C117.049 261.471 124.462 254.059 124.462 244.915C124.462 235.771 117.049 228.359 107.906 228.359C98.762 228.359 91.3496 235.771 91.3496 244.915C91.3496 254.059 98.762 261.471 107.906 261.471Z" fill="white"/>
<path id="Vector_39" d="M62.2304 307C71.374 307 78.7864 299.588 78.7864 290.444C78.7864 281.3 71.374 273.888 62.2304 273.888C53.0867 273.888 45.6743 281.3 45.6743 290.444C45.6743 299.588 53.0867 307 62.2304 307Z" fill="white"/>
<path id="Vector_40" d="M16.556 307C25.6997 307 33.112 299.588 33.112 290.444C33.112 281.3 25.6997 273.888 16.556 273.888C7.41238 273.888 0 281.3 0 290.444C0 299.588 7.41238 307 16.556 307Z" fill="white"/>
<path id="Vector_41" d="M107.906 307C117.049 307 124.462 299.588 124.462 290.444C124.462 281.3 117.049 273.888 107.906 273.888C98.762 273.888 91.3496 281.3 91.3496 290.444C91.3496 299.588 98.762 307 107.906 307Z" fill="white"/>
<path id="Vector_42" d="M62.2304 215.799C71.374 215.799 78.7864 208.387 78.7864 199.243C78.7864 190.1 71.374 182.687 62.2304 182.687C53.0867 182.687 45.6743 190.1 45.6743 199.243C45.6743 208.387 53.0867 215.799 62.2304 215.799Z" fill="white"/>
<path id="Vector_43" d="M16.556 215.799C25.6997 215.799 33.112 208.387 33.112 199.243C33.112 190.1 25.6997 182.687 16.556 182.687C7.41238 182.687 0 190.1 0 199.243C0 208.387 7.41238 215.799 16.556 215.799Z" fill="white"/>
<path id="Vector_44" d="M153.574 307C162.717 307 170.13 299.588 170.13 290.444C170.13 281.3 162.717 273.888 153.574 273.888C144.43 273.888 137.018 281.3 137.018 290.444C137.018 299.588 144.43 307 153.574 307Z" fill="white"/>
</g>
<g id="S">
<path id="Vector_45" d="M473.134 170.127C482.277 170.127 489.69 162.715 489.69 153.571C489.69 144.428 482.277 137.015 473.134 137.015C463.99 137.015 456.578 144.428 456.578 153.571C456.578 162.715 463.99 170.127 473.134 170.127Z" fill="white"/>
<path id="Vector_46" d="M518.808 170.127C527.952 170.127 535.364 162.715 535.364 153.571C535.364 144.428 527.952 137.015 518.808 137.015C509.664 137.015 502.252 144.428 502.252 153.571C502.252 162.715 509.664 170.127 518.808 170.127Z" fill="white"/>
<path id="Vector_47" d="M564.476 170.127C573.62 170.127 581.032 162.715 581.032 153.571C581.032 144.428 573.62 137.015 564.476 137.015C555.333 137.015 547.92 144.428 547.92 153.571C547.92 162.715 555.333 170.127 564.476 170.127Z" fill="white"/>
<path id="Vector_48" d="M518.808 124.456C527.952 124.456 535.364 117.043 535.364 107.9C535.364 98.7561 527.952 91.3437 518.808 91.3437C509.664 91.3437 502.252 98.7561 502.252 107.9C502.252 117.043 509.664 124.456 518.808 124.456Z" fill="white"/>
<path id="Vector_49" d="M518.808 78.784C527.952 78.784 535.364 71.3716 535.364 62.228C535.364 53.0843 527.952 45.672 518.808 45.672C509.664 45.672 502.252 53.0843 502.252 62.228C502.252 71.3716 509.664 78.784 518.808 78.784Z" fill="white"/>
<path id="Vector_50" d="M473.134 124.456C482.277 124.456 489.69 117.043 489.69 107.9C489.69 98.7561 482.277 91.3437 473.134 91.3437C463.99 91.3437 456.578 98.7561 456.578 107.9C456.578 117.043 463.99 124.456 473.134 124.456Z" fill="white"/>
<path id="Vector_51" d="M473.134 78.784C482.277 78.784 489.69 71.3716 489.69 62.228C489.69 53.0843 482.277 45.672 473.134 45.672C463.99 45.672 456.578 53.0843 456.578 62.228C456.578 71.3716 463.99 78.784 473.134 78.784Z" fill="white"/>
<path id="Vector_52" d="M610.151 170.127C619.294 170.127 626.707 162.715 626.707 153.571C626.707 144.428 619.294 137.015 610.151 137.015C601.007 137.015 593.595 144.428 593.595 153.571C593.595 162.715 601.007 170.127 610.151 170.127Z" fill="white"/>
<path id="Vector_53" d="M564.476 78.784C573.62 78.784 581.032 71.3716 581.032 62.228C581.032 53.0843 573.62 45.672 564.476 45.672C555.333 45.672 547.92 53.0843 547.92 62.228C547.92 71.3716 555.333 78.784 564.476 78.784Z" fill="white"/>
<path id="Vector_54" d="M518.808 33.1121C527.952 33.1121 535.364 25.6997 535.364 16.556C535.364 7.41241 527.952 0 518.808 0C509.664 0 502.252 7.41241 502.252 16.556C502.252 25.6997 509.664 33.1121 518.808 33.1121Z" fill="white"/>
<path id="Vector_55" d="M564.476 33.1121C573.62 33.1121 581.032 25.6997 581.032 16.556C581.032 7.41241 573.62 0 564.476 0C555.333 0 547.92 7.41241 547.92 16.556C547.92 25.6997 555.333 33.1121 564.476 33.1121Z" fill="white"/>
<path id="Vector_56" d="M610.151 78.784C619.294 78.784 626.707 71.3716 626.707 62.228C626.707 53.0843 619.294 45.672 610.151 45.672C601.007 45.672 593.595 53.0843 593.595 62.228C593.595 71.3716 601.007 78.784 610.151 78.784Z" fill="white"/>
<path id="Vector_57" d="M610.151 33.1121C619.294 33.1121 626.707 25.6997 626.707 16.556C626.707 7.41241 619.294 0 610.151 0C601.007 0 593.595 7.41241 593.595 16.556C593.595 25.6997 601.007 33.1121 610.151 33.1121Z" fill="white"/>
<path id="Vector_58" d="M564.476 215.799C573.62 215.799 581.032 208.387 581.032 199.243C581.032 190.1 573.62 182.687 564.476 182.687C555.333 182.687 547.92 190.1 547.92 199.243C547.92 208.387 555.333 215.799 564.476 215.799Z" fill="white"/>
<path id="Vector_59" d="M564.476 124.456C573.62 124.456 581.032 117.043 581.032 107.9C581.032 98.7561 573.62 91.3437 564.476 91.3437C555.333 91.3437 547.92 98.7561 547.92 107.9C547.92 117.043 555.333 124.456 564.476 124.456Z" fill="white"/>
<path id="Vector_60" d="M610.151 215.799C619.294 215.799 626.707 208.387 626.707 199.243C626.707 190.1 619.294 182.687 610.151 182.687C601.007 182.687 593.595 190.1 593.595 199.243C593.595 208.387 601.007 215.799 610.151 215.799Z" fill="white"/>
<path id="Vector_61" d="M518.808 215.799C527.952 215.799 535.364 208.387 535.364 199.243C535.364 190.1 527.952 182.687 518.808 182.687C509.664 182.687 502.252 190.1 502.252 199.243C502.252 208.387 509.664 215.799 518.808 215.799Z" fill="white"/>
<path id="Vector_62" d="M564.476 261.471C573.62 261.471 581.032 254.059 581.032 244.915C581.032 235.771 573.62 228.359 564.476 228.359C555.333 228.359 547.92 235.771 547.92 244.915C547.92 254.059 555.333 261.471 564.476 261.471Z" fill="white"/>
<path id="Vector_63" d="M610.151 261.471C619.294 261.471 626.707 254.059 626.707 244.915C626.707 235.771 619.294 228.359 610.151 228.359C601.007 228.359 593.595 235.771 593.595 244.915C593.595 254.059 601.007 261.471 610.151 261.471Z" fill="white"/>
<path id="Vector_64" d="M518.808 261.471C527.952 261.471 535.364 254.059 535.364 244.915C535.364 235.771 527.952 228.359 518.808 228.359C509.664 228.359 502.252 235.771 502.252 244.915C502.252 254.059 509.664 261.471 518.808 261.471Z" fill="white"/>
<path id="Vector_65" d="M564.476 307C573.62 307 581.032 299.588 581.032 290.444C581.032 281.3 573.62 273.888 564.476 273.888C555.333 273.888 547.92 281.3 547.92 290.444C547.92 299.588 555.333 307 564.476 307Z" fill="white"/>
<path id="Vector_66" d="M518.808 307C527.952 307 535.364 299.588 535.364 290.444C535.364 281.3 527.952 273.888 518.808 273.888C509.664 273.888 502.252 281.3 502.252 290.444C502.252 299.588 509.664 307 518.808 307Z" fill="white"/>
<path id="Vector_67" d="M473.134 261.471C482.277 261.471 489.69 254.059 489.69 244.915C489.69 235.771 482.277 228.359 473.134 228.359C463.99 228.359 456.578 235.771 456.578 244.915C456.578 254.059 463.99 261.471 473.134 261.471Z" fill="white"/>
<path id="Vector_68" d="M473.134 307C482.277 307 489.69 299.588 489.69 290.444C489.69 281.3 482.277 273.888 473.134 273.888C463.99 273.888 456.578 281.3 456.578 290.444C456.578 299.588 463.99 307 473.134 307Z" fill="white"/>
</g>
</g>
</svg>
